<svg xmlns="http://www.w3.org/2000/svg" viewBox="0 0 545.57 544.62"><defs><style>.cls-1,.cls-6,.cls-7{fill:#ed2024;}.cls-2,.cls-5{fill:#fff;}.cls-3,.cls-4{fill:none;}.cls-3,.cls-4,.cls-5,.cls-6,.cls-7{stroke:#fff;}.cls-3,.cls-5,.cls-6,.cls-7{stroke-miterlimit:10;}.cls-3,.cls-7{stroke-width:5px;}.cls-4{stroke-linecap:round;stroke-linejoin:round;stroke-width:3px;}</style></defs><title>OTF-ICON</title><g id="Background"><rect class="cls-1" width="545.57" height="544.62"/></g><g id="Images"><path id="p" class="cls-2" d="M277.55,171a7.17,7.17,0,0,0-6.84,6.3c-.92,6.23,2.46,13.92,6.84,18.91,4.38-5,7.47-12.64,6.83-18.91l6.27-.64c.85,10-4.28,21.54-13.1,28.09-8.83-6.55-14-18.08-13.21-28.09l1.53-4.48C268.29,167.55,273,165.55,277.55,171Z" transform="translate(-0.14 -0.1)"/><path id="p-2" data-name="p" class="cls-2" d="M277.55,171a7.16,7.16,0,0,0-2-9.07c-4.93-3.91-13.28-4.83-19.79-3.53,2.13,6.29,7.21,12.79,13,15.37l-2.57,5.75c-9.09-4.26-16.52-14.47-17.78-25.39,10.09-4.37,22.64-3,30.93,2.61l3.12,3.57C285.13,164.66,284.53,169.69,277.55,171Z" transform="translate(-0.14 -0.1)"/><path id="p-3" data-name="p" class="cls-2" d="M277.55,171a7.15,7.15,0,0,0,8.87,2.77c5.86-2.31,10.83-9.08,12.95-15.37-6.5-1.3-14.68-.15-19.78,3.53l-3.69-5.1c8.23-5.74,20.79-7.07,30.87-2.7-1.26,10.92-8.68,21.13-17.72,25.48l-4.65.92C279.22,180.69,275.16,177.65,277.55,171Z" transform="translate(-0.14 -0.1)"/><path class="cls-2" d="M312,398.17c-4.54-8.05-13.79-12.49-26.05-12.49a15,15,0,0,0-6.7,1.66,24.49,24.49,0,0,1,23-16.3,1.63,1.63,0,1,0,0-3.25,27.67,27.67,0,0,0-21.74,10.58l-.44-.82a21.27,21.27,0,0,0-19.82-19.9,10.31,10.31,0,0,1-1.09-.44,6.76,6.76,0,0,0-2.48-.76h-.1a2.64,2.64,0,0,0-.3.07,1.43,1.43,0,0,0-.28.07,1.58,1.58,0,0,0-.86.86,1.31,1.31,0,0,0-.06.27,1.18,1.18,0,0,0-.07.3v0s0,0,0,.07a6.59,6.59,0,0,0,.75,2.46c.16.36.4.9.43,1A21.24,21.24,0,0,0,276,381.48a12.87,12.87,0,0,1,1.3.65l.55.28a27.51,27.51,0,0,0-2.37,6.08l-.44-.27c-1.63-1-4.09-2.54-7-2.54-13.16,0-23,4.54-27.63,12.77-5.32,9.41-3.5,22.5,5.13,36.86,9.1,15.16,17.29,18.75,23,18.75a12.77,12.77,0,0,0,1.67-.11,12.18,12.18,0,0,0,6-2.42,12.09,12.09,0,0,0,5.74,2.38c5.74.81,14.72-1.76,24.92-18.59C315.52,421,317.34,407.75,312,398.17Zm-52.24-34.71L274.23,378A18,18,0,0,1,259.71,363.46Zm2.3-2.3a18,18,0,0,1,14.52,14.52Zm2.74,34.28a16.29,16.29,0,0,0-16.26,16.26,1.63,1.63,0,1,1-3.25,0,19.53,19.53,0,0,1,19.51-19.51,1.63,1.63,0,1,1,0,3.25Zm18.43,4.07a8.13,8.13,0,0,1-14.08,0,1.62,1.62,0,1,1,2.81-1.63,4.89,4.89,0,0,0,8.46,0,1.62,1.62,0,1,1,2.81,1.63Z" transform="translate(-0.14 -0.1)"/><polygon class="cls-3" points="146.47 350.67 137.27 355.51 139.02 345.26 131.58 338.01 141.87 336.51 146.47 327.19 151.07 336.51 161.36 338.01 153.91 345.26 155.67 355.51 146.47 350.67"/><polygon class="cls-3" points="401.63 213.1 392.42 217.94 394.18 207.69 386.74 200.43 397.02 198.94 401.63 189.61 406.23 198.94 416.52 200.43 409.07 207.69 410.83 217.94 401.63 213.1"/><polygon class="cls-3" points="401.35 350.53 392.14 355.37 393.9 345.12 386.46 337.86 396.75 336.37 401.35 327.04 405.95 336.37 416.24 337.86 408.79 345.12 410.55 355.37 401.35 350.53"/><polygon class="cls-3" points="146.84 213.74 137.64 218.58 139.4 208.34 131.95 201.08 142.24 199.58 146.84 190.26 151.44 199.58 161.73 201.08 154.29 208.34 156.05 218.58 146.84 213.74"/><path class="cls-4" d="M381.09,390l-143.52-205c-5.41-7.74-11.93-12.53-14.54-10.7s-.34,9.58,5.08,17.32l143.52,205Z" transform="translate(-0.14 -0.1)"/><path class="cls-4" d="M362.16,403.28l-143.51-205c-5.42-7.74-7.7-15.5-5.08-17.33s9.12,3,14.54,10.7l143.52,205Z" transform="translate(-0.14 -0.1)"/><path class="cls-4" d="M362.16,403.28l-143.51-205c-5.42-7.74-11.93-12.53-14.55-10.7s-.33,9.59,5.08,17.32l143.52,205Z" transform="translate(-0.14 -0.1)"/><rect class="cls-4" x="351.79" y="399.03" width="36.16" height="10.38" transform="translate(-165.1 285.15) rotate(-35)"/><path class="cls-4" d="M363.56,425.42c1.5,2.13,4.74,2.43,7.25.68l19.3-13.52c2.51-1.75,3.34-4.91,1.84-7l-4.91-7-28.39,19.88Z" transform="translate(-0.14 -0.1)"/><polyline class="cls-4" points="185.8 150.75 194.55 144.62 231.24 176.89 171.81 121.46 203.58 196.26"/><path class="cls-4" d="M334.16,161.23c7.68-11,28.84-32.93,51-39.26-12,12.95-11.06,37.05-25.26,57.32-7.68,11-19.68,15.82-26.8,10.83S326.48,172.2,334.16,161.23Z" transform="translate(-0.14 -0.1)"/><path class="cls-4" d="M341.32,192c-.59,16.84-6.82,31.46-56.49,96.7s-112.19,145.16-119,140.39,46.91-90.85,91.22-159.84S313,189.4,328.6,183.08" transform="translate(-0.14 -0.1)"/><line class="cls-4" x1="321.05" y1="238.62" x2="291.44" y2="217.88"/><path class="cls-5" d="M358.94,232.8h-7.62v-6.65h0a3.49,3.49,0,0,0-1.81-3.07c-.78-.43-1.53-.84-2.31-1.21-.22-.13-.44-.22-.62-.32l-1.66-.84c-.28-.12-.59-.28-.87-.41l-1.44-.65a9.41,9.41,0,0,0-1-.41c-.44-.18-.9-.4-1.34-.59s-.66-.28-1-.41-.88-.34-1.31-.5l-1-.37-1.28-.47c-.35-.12-.72-.25-1.07-.34l-1.25-.41c-.34-.12-.71-.22-1.06-.31l-1.25-.38-1.09-.28c-.41-.09-.81-.22-1.22-.31l-1.09-.25-1.22-.28c-.38-.06-.72-.16-1.09-.22s-.82-.16-1.22-.22l-1.1-.19-1.21-.18c-.38-.07-.75-.1-1.1-.16s-.81-.09-1.21-.16l-1.1-.09-1.22-.09c-.37,0-.75-.07-1.09-.07l-1.22-.06c-.37,0-.75,0-1.09,0s-.81,0-1.22,0h-1.09c-.41,0-.81,0-1.22,0s-.75,0-1.09,0-.82,0-1.22.06l-1.09.1-1.22.09a9.46,9.46,0,0,0-1.1.13c-.4,0-.81.09-1.21.15s-.75.1-1.1.16l-1.22.19-1.09.18c-.4.07-.81.16-1.22.22s-.72.16-1.09.22l-1.22.28c-.37.1-.72.16-1.09.25s-.81.22-1.22.31-.72.19-1.09.32-.82.25-1.22.34-.72.22-1.09.34-.82.25-1.22.41l-1.1.38-1.21.43c-.38.13-.72.28-1.1.41s-.81.31-1.22.5l-1.09.44c-.4.18-.81.34-1.22.53l-1.06.47-1.22.56c-.34.15-.72.34-1.06.5s-.81.4-1.22.62-.72.38-1.06.53c-.09.07-.22.1-.31.16s-.22-.09-.31-.16c-.38-.18-.72-.37-1.1-.56s-.81-.41-1.21-.62l-1.1-.54-1.22-.56a9.82,9.82,0,0,1-1.09-.5c-.41-.18-.81-.34-1.19-.53l-1.12-.47c-.41-.15-.78-.31-1.19-.47s-.75-.28-1.12-.4l-1.19-.44-1.12-.37-1.19-.38-1.13-.34c-.4-.13-.78-.25-1.18-.35s-.75-.21-1.13-.31-.78-.22-1.18-.31l-1.13-.28c-.4-.09-.78-.19-1.18-.25s-.75-.16-1.13-.22-.78-.16-1.19-.22l-1.12-.19-1.16-.18c-.37-.07-.75-.1-1.15-.16s-.78-.09-1.16-.12-.75-.1-1.15-.13l-1.16-.09-1.15-.1c-.38,0-.79,0-1.16-.06s-.75,0-1.16,0l-1.15,0H240.5c-.4,0-.78,0-1.18,0s-.75,0-1.16,0l-1.19.06c-.37,0-.75,0-1.12.07l-1.19.09c-.37,0-.75.06-1.12.12s-.78.1-1.19.16-.75.09-1.12.16l-1.19.18-1.13.19c-.4.06-.78.16-1.18.22s-.75.16-1.13.22l-1.18.28-1.13.25c-.4.09-.81.22-1.22.31l-1.09.28c-.41.13-.81.25-1.22.35s-.72.22-1.09.31-.81.28-1.22.41-.72.21-1.06.34-.84.31-1.25.44l-1.06.37c-.44.16-.85.34-1.28.5l-1,.41-1.35.56c-.31.16-.65.28-1,.41l-1.43.65-.88.41c-.56.28-1.09.56-1.65.81a6.53,6.53,0,0,1-.66.31L203.52,223a3.48,3.48,0,0,0-1.81,3.06h0v6.65h-7.56a3.5,3.5,0,0,0-3.5,3.5V337.68a3.49,3.49,0,0,0,4.72,3.28l15-5.49a85.52,85.52,0,0,1,61.19,0l3.84,1.4s.06,0,.13,0,.06,0,.09,0l.09,0c.1,0,.19,0,.28.06h.16c.06,0,.09,0,.16,0h1l.18,0a.28.28,0,0,0,.13,0l.09,0,.09,0s.1,0,.13,0l3.84-1.4a85.6,85.6,0,0,1,61.22,0l15,5.5a3.52,3.52,0,0,0,1.22.21,3.48,3.48,0,0,0,3.5-3.49V236.2A3.75,3.75,0,0,0,358.94,232.8Z" transform="translate(-0.14 -0.1)"/><path class="cls-6" d="M293.85,323.44c-3.06,1.13-6.09,2.28-9.12,3.47-.44.15-.9.34-1.34.5l-.72.28-1,.37c-.44.16-.84.32-1.28.5-.12.07-.25.1-.37.16V228.3a.23.23,0,0,1,.12-.06l1-.5c.34-.19.72-.38,1.06-.53l1-.47,1-.5c.35-.16.69-.31,1-.44s.69-.31,1-.44l1-.43c.35-.13.69-.28,1-.41s.69-.25,1-.4l1-.38,1-.37c.35-.13.66-.22,1-.35l1.07-.34c.34-.1.65-.22,1-.31s.68-.19,1.06-.28l1-.29c.34-.09.68-.18,1.06-.25s.65-.15,1-.21a8.27,8.27,0,0,1,1.06-.22l1-.19,1.06-.19c.31-.06.66-.12,1-.15s.68-.1,1.06-.16.66-.09,1-.13.68-.09,1.06-.12l1-.09,1.06-.1c.31,0,.66,0,1-.06s.69,0,1-.06l1,0c.34,0,.68,0,1,0h1c.34,0,.68,0,1,0s.65,0,1,0,.69,0,1,.06l1,.06,1,.1,1,.09c.34,0,.69.06,1,.12s.66.1,1,.13.69.09,1,.16l1,.18,1,.19c.34.06.69.13,1,.22a9,9,0,0,1,1,.22c.34.09.69.15,1,.25s.66.15,1,.25l1.06.28,1,.28c.34.09.72.22,1.06.34s.66.19,1,.32l1.09.37c.32.09.63.22.94.34s.75.29,1.13.41.62.22.9.34l1.16.47.87.38c.41.18.81.37,1.22.53l.81.37,1.38.66c.21.09.43.22.68.31l2.06,1v88.86C327.24,312.6,310.34,317.38,293.85,323.44Z" transform="translate(-0.14 -0.1)"/><path class="cls-6" d="M227.2,315.48c-1.44-.1-2.88-.16-4.34-.16a54.6,54.6,0,0,0-14.09,1.78V228.24c.12-.06.25-.13.4-.19l1.66-.84.78-.38,1.28-.62.84-.38c.41-.18.82-.34,1.19-.53l.91-.37,1.15-.47c.32-.13.6-.22.91-.34s.75-.29,1.12-.44a9.37,9.37,0,0,1,.94-.31l1.13-.38.93-.28c.38-.13.72-.22,1.1-.34l.93-.28c.38-.1.72-.22,1.1-.32s.65-.15,1-.25.72-.18,1.07-.25a8.3,8.3,0,0,0,1-.22l1.07-.21,1-.19,1.07-.19c.31-.06.65-.09,1-.16s.69-.09,1.07-.15.65-.1,1-.13l1-.09,1-.09c.34,0,.68-.07,1-.07l1-.06c.34,0,.68,0,1,0s.65,0,1,0h1c.34,0,.65,0,1,0s.68,0,1,0,.65,0,1,.06.68,0,1,.07l1,.09,1,.09c.34,0,.69.07,1,.13l1,.12c.34.07.69.1,1,.16l1,.16,1,.18c.34.07.69.13,1,.22s.69.16,1,.22a9.74,9.74,0,0,1,1,.25l1,.25,1,.28,1,.28c.35.1.69.22,1,.31s.69.22,1,.32l1,.34c.35.13.69.22,1,.34l1,.38,1,.37c.35.13.69.29,1,.41s.66.28,1,.41l1,.46,1,.44c.35.16.72.35,1.07.5l1,.47a11.64,11.64,0,0,0,1.06.53c.31.16.65.31,1,.5a.23.23,0,0,0,.12.06V328.53c-.12,0-.22-.09-.34-.12l-1.5-.56-.69-.29-2.12-.81C254.9,321.72,241.13,316.41,227.2,315.48Z" transform="translate(-0.14 -0.1)"/><path class="cls-6" d="M207.89,329l-10.24,3.75v-93h4.12v82.05a2.22,2.22,0,0,0,0,.44,3.6,3.6,0,0,0,.85,1.87,3,3,0,0,0,.62.56,3.48,3.48,0,0,0,3.22.41c9-3.31,18-3.47,27.11-1.88A100.24,100.24,0,0,0,207.89,329Z" transform="translate(-0.14 -0.1)"/><path class="cls-6" d="M355.45,332.81l-10.25-3.75a97.37,97.37,0,0,0-25.67-5.74c9.12-1.56,18.11-1.41,27.11,1.87a3.49,3.49,0,0,0,4.71-3.28V239.86h4.13v92.95Z" transform="translate(-0.14 -0.1)"/></g><g id="Ring"><rect class="cls-1" x="76.08" y="250.15" width="395.54" height="42.38"/><circle class="cls-3" cx="273.82" cy="273.96" r="258.4" transform="translate(-113.66 273.76) rotate(-45)"/><circle class="cls-3" cx="273.82" cy="273.96" r="205.4" transform="translate(-113.66 273.76) rotate(-45)"/><path class="cls-7" d="M69.72,250.24H478.94m0,43.75H70.37" transform="translate(-0.14 -0.1)"/></g><g id="Text"><path class="cls-2" d="M43.38,261.55c8.37-.1,15.43,4.87,15.54,15,.11,10-6.8,14.85-15.18,14.94s-15.42-5.11-15.53-15.05C28.1,267.12,34.52,261.64,43.38,261.55Zm.14,21c5.43-.06,9.2-1.91,9.15-6.2-.05-4.51-4.08-5.95-9.13-5.9-5.4.06-9.13,1.68-9.08,6.21C34.51,280.89,38,282.62,43.52,282.56Z" transform="translate(-0.14 -0.1)"/><path class="cls-2" d="M58.55,257.78l-29.34-4.09,1.44-10.28c7-2.17,16.58-5.39,20.37-6.12l0-.15c-3.09-.1-8.28-.74-13-1.4l-6.24-.87L32.93,227l29.34,4.09-1.37,9.8c-5.66,1.75-17.41,5.52-21.47,6.36l0,.11c2.8.12,8.48.88,13.65,1.6l6.58.92Z" transform="translate(-0.14 -0.1)"/><path class="cls-2" d="M42.83,214.07l-2.28,8.15-6.19-1.74,6.88-24.59,6.19,1.73-2.26,8.08L67.5,212l-2.34,8.37Z" transform="translate(-0.14 -0.1)"/><path class="cls-2" d="M67.08,195.32l4.69,3.76-3.19,7.83L44.69,187.07l4.24-10.41L80,178.83l-3.42,8.39-6-.51Zm-3-9.62c-4.83-.47-9.09-1-12-1.45l0,.11c2.7,1.84,6.19,4.49,9.68,7.21Z" transform="translate(-0.14 -0.1)"/><path class="cls-2" d="M75.61,164.22l9.7,5.56-4.18,7.31-25.7-14.73,7.3-12.73c3.47-6,8.39-7.12,12.26-4.9a7.17,7.17,0,0,1,3.89,7.35c1.49-1.29,4.19-2,8.55.45l1.07.62a27.41,27.41,0,0,0,5,2.4l-4.11,7.18c-1.36-.2-3.29-1.16-5.93-2.67l-.66-.38c-2.22-1.27-3.74-1.44-5.64,1.88Zm-5.25-3,2-3.48c1.43-2.51.92-4-.81-5s-3.34-.48-4.66,1.82l-2,3.52Z" transform="translate(-0.14 -0.1)"/><path class="cls-2" d="M77,128l24.11,17.2-5,7.08L72,135.07Z" transform="translate(-0.14 -0.1)"/><path class="cls-2" d="M112,109.5c6.26,5.57,8.14,14,1.4,21.57s-15,6.41-21.29.84-8-14.16-1.37-21.59C96.93,103.35,105.36,103.61,112,109.5Zm-14,15.64c4.07,3.62,8.09,4.78,11,1.57,3-3.37,1-7.15-2.79-10.5-4-3.59-7.88-4.9-10.9-1.52C92.4,117.84,93.83,121.48,97.94,125.14Z" transform="translate(-0.14 -0.1)"/><path class="cls-2" d="M123.05,88.94l-6.66,5.24-4-5.06,20.07-15.8,4,5.05-6.6,5.2,14.34,18.21-6.82,5.37Z" transform="translate(-0.14 -0.1)"/><path class="cls-2" d="M165.5,73.63l-11.53,7,2.88,4.75,12.87-7.8,2.51,6L153,95.2,137.69,69.88l19.16-11.62,3.33,5.5-12,7.29,2.47,4.08,11.54-7Z" transform="translate(-0.14 -0.1)"/><path class="cls-2" d="M181,73.07l.72,6L174,82.4l-3.2-30.89L181.09,47,201.8,70.33l-8.32,3.61-3.94-4.57Zm4.57-9c-3.13-3.71-5.82-7.06-7.59-9.44l-.11,0c.64,3.2,1.29,7.53,1.88,11.91Z" transform="translate(-0.14 -0.1)"/><path class="cls-2" d="M226.62,53.51c.55,6.27-2.79,11.4-10.64,13.49-9.37,2.5-15.59-2.62-17.8-10.93-2.16-8.1.47-16.24,10.3-18.86C216.89,35,222,38.84,223.9,43.64l-8.32,2.22a4.51,4.51,0,0,0-5.73-2.71c-4.07,1.09-4.43,5.33-3.1,10.33,1.21,4.53,3.56,8.7,8,7.53,3.34-.89,3.62-3.56,3.55-5.27Z" transform="translate(-0.14 -0.1)"/><path class="cls-2" d="M228.25,32.8l8.62-1.15,1.47,11,9-1.2-1.47-11,8.64-1.16,3.93,29.35-8.64,1.16-1.6-12-9,1.2,1.6,12-8.62,1.15Z" transform="translate(-0.14 -0.1)"/><path class="cls-2" d="M285.3,46.54l-13.49,0v5.55l15.06,0-1,6.43-22.43,0,.06-29.61,22.41,0,0,6.43-14.06,0v4.76l13.48,0Z" transform="translate(-0.14 -0.1)"/><path class="cls-2" d="M299.57,48.78l-1.45,11.09-8.36-1.09,3.84-29.37,14.55,1.91c6.92.9,9.78,5,9.2,9.47A7.16,7.16,0,0,1,312,47.18c1.77.89,3.49,3.1,2.84,8.08l-.16,1.22a28.4,28.4,0,0,0-.34,5.52l-8.2-1.08c-.33-1.33-.18-3.47.22-6.49l.1-.76c.33-2.53-.09-4-3.89-4.5Zm.78-6,4,.52c2.87.37,4.07-.68,4.33-2.66s-.84-3.27-3.47-3.61l-4-.53Z" transform="translate(-0.14 -0.1)"/><path class="cls-2" d="M327.15,56c-.2,2.62,1.27,4.14,4,4.87,2.54.68,3.94.11,4.39-1.55.51-1.88-.57-2.93-4.79-5.23-7.89-4.31-8.74-7.85-7.7-11.69,1.29-4.8,5.9-7.87,13.85-5.73,8.28,2.23,10.53,7.34,9.71,12l-8.09-2.19c.19-1.59-.18-3.36-3.15-4.16-1.92-.52-3.29-.11-3.71,1.43s.47,2.44,4.59,4.71c8.22,4.57,9.11,8.21,8,12.28-1.45,5.37-6.6,8-15,5.72-7.91-2.12-11.1-6.94-10.25-12.61Z" transform="translate(-0.14 -0.1)"/><path class="cls-2" d="M350.07,53.43a57.38,57.38,0,0,0,6.3-11.76l7.25,2.69a34.67,34.67,0,0,1-8,11.11Z" transform="translate(-0.14 -0.1)"/><path class="cls-2" d="M378.78,52.43l19.61,10.29-3,5.7-12.07-6.35-2.68,5.1,11.3,5.94-3,5.72-11.31-5.94-5.09,9.71-7.53-4Z" transform="translate(-0.14 -0.1)"/><path class="cls-2" d="M412.24,93.31l-11.1-7.66L398,90.22l12.39,8.55-4.45,4.74L387.46,90.77,404.28,66.4l18.44,12.72-3.65,5.3-11.57-8-2.71,3.93L415.89,88Z" transform="translate(-0.14 -0.1)"/><path class="cls-2" d="M428.91,83.91l9.42,8.55c7,6.34,7,14.43,1.3,20.73s-14.12,7.63-21.3,1.11L409,105.84ZM419.66,107l2.46,2.23c3.49,3.17,7.14,2,10.87-2.09,3.29-3.63,4.17-7.28.67-10.46l-2.54-2.31Z" transform="translate(-0.14 -0.1)"/><path class="cls-2" d="M455.11,136.24l-8.7-10.31-4.24,3.57,9.7,11.52-5.54,3.4-14.46-17.16,22.65-19.08L469,125.32,464,129.46,455,118.71l-3.65,3.07L460,132.1Z" transform="translate(-0.14 -0.1)"/><path class="cls-2" d="M462.6,148.59l-9.41,6-4.55-7.09,24.9-16,7.94,12.34c3.77,5.87,2.45,10.73-1.3,13.14a7.17,7.17,0,0,1-8.31.06c.46,1.93-.13,4.67-4.34,7.38l-1,.67a28.31,28.31,0,0,0-4.43,3.31l-4.47-7c.8-1.11,2.54-2.38,5.1-4l.64-.41c2.15-1.38,3-2.65.93-5.87Zm5.09-3.28,2.17,3.38c1.56,2.43,3.14,2.67,4.82,1.59s2-2.75.52-5L473,141.89Z" transform="translate(-0.14 -0.1)"/><path class="cls-2" d="M472.51,176.69l-5.95.85L463,169.86l30.81-3.9,4.71,10.21L475.72,197.4l-3.8-8.23,4.48-4Zm9.09,4.36c3.64-3.21,6.93-6,9.27-7.8l-.05-.1c-3.19.71-7.5,1.45-11.87,2.15Z" transform="translate(-0.14 -0.1)"/><path class="cls-2" d="M499.06,195.24l-2.64-8,6.11-2,8,24.27-6.11,2-2.62-8-22,7.23L477,202.48Z" transform="translate(-0.14 -0.1)"/><path class="cls-2" d="M513.56,223.37,484.71,230l-1.95-8.49,28.86-6.63Z" transform="translate(-0.14 -0.1)"/><path class="cls-2" d="M504.21,261.81c-8.32,1-15.87-3.2-17.06-13.28-1.18-9.89,5.17-15.49,13.49-16.48,8.47-1,15.89,3.43,17.06,13.31C518.8,254.62,513,260.76,504.21,261.81Zm-2.38-20.89c-5.41.64-8.95,2.88-8.44,7.15.53,4.48,4.69,5.48,9.7,4.89,5.37-.64,8.9-2.65,8.37-7.15C511,241.62,507.3,240.27,501.83,240.92Z" transform="translate(-0.14 -0.1)"/><path class="cls-2" d="M489.53,267.17l29.59.94-.33,10.37c-6.76,2.91-15.91,7.13-19.59,8.26v.15c3.08-.24,8.31-.15,13,0l6.29.2-.25,7.91-29.6-.94.32-9.89c5.43-2.34,16.71-7.34,20.66-8.61v-.12c-2.79.19-8.52,0-13.73-.13l-6.65-.21Z" transform="translate(-0.14 -0.1)"/><path class="cls-2" d="M44.28,312.68l-6.48.92L36,301.07l6.48-.92Z" transform="translate(-0.14 -0.1)"/><path class="cls-2" d="M40.61,336.29l-6,0-2.36-8.11,31.05.7,3.14,10.78L40.72,357.25l-2.54-8.7,5-3.34ZM49,342c4.08-2.64,7.73-4.89,10.32-6.34l0-.12c-3.25.24-7.63.33-12.05.37Z" transform="translate(-0.14 -0.1)"/><path class="cls-2" d="M62.23,376.93,56.9,364.54l-5.11,2.2,6,13.83-6.29,1.65-8.88-20.61L69.79,349.9l8.86,20.59L72.74,373l-5.56-12.92L62.8,362l5.34,12.39Z" transform="translate(-0.14 -0.1)"/><path class="cls-2" d="M80.13,373.22l11,19.23-5.58,3.19L78.76,383.8l-5,2.86,6.34,11.08L74.5,401l-6.34-11.08-9.52,5.44-4.23-7.38Z" transform="translate(-0.14 -0.1)"/><path class="cls-2" d="M97.85,426.28c-6.67,5.05-15.3,5.25-21.42-2.83s-3.37-16,3.32-21,15.44-5.06,21.43,2.86C106.81,412.71,104.92,420.93,97.85,426.28Zm-12.6-16.81c-4.34,3.28-6.26,7-3.67,10.42,2.72,3.6,6.82,2.36,10.84-.68,4.31-3.26,6.34-6.78,3.61-10.39C93.48,405.46,89.64,406.14,85.25,409.47Z" transform="translate(-0.14 -0.1)"/><path class="cls-2" d="M115.68,444.77l-4.58,4.67-9-8.87,4.59-4.67Z" transform="translate(-0.14 -0.1)"/><path class="cls-2" d="M142.48,469.39l-10.82-8.07-3.32,4.46,12.07,9-4.62,4.57-18-13.41,17.7-23.75,18,13.4-3.84,5.16-11.28-8.41-2.85,3.83,10.82,8.06Z" transform="translate(-0.14 -0.1)"/><path class="cls-2" d="M158.64,466.13l-7.34-4.21,3.2-5.58,22.16,12.71-3.2,5.58-7.28-4.18-11.54,20.11-7.53-4.32Z" transform="translate(-0.14 -0.1)"/><path class="cls-2" d="M178.3,469.7l20.33,8.77-2.55,5.9L183.55,479l-2.27,5.29L193,489.31l-2.56,5.94-11.72-5.06-4.35,10.06-7.8-3.36Z" transform="translate(-0.14 -0.1)"/><path class="cls-2" d="M225,501.82c-2.41,8-9.25,13.29-19,10.38-9.54-2.86-12.16-10.91-9.75-18.94s9.47-13.21,19-10.36C224.2,485.58,227.52,493.34,225,501.82Zm-20.11-6.11c-1.56,5.2-.92,9.35,3.2,10.58,4.32,1.29,6.89-2.12,8.34-7,1.56-5.18,1.12-9.22-3.22-10.52C209.15,487.6,206.45,490.42,204.87,495.71Z" transform="translate(-0.14 -0.1)"/><path class="cls-2" d="M249.6,505.52l-.86,6.48-12.55-1.66.86-6.49Z" transform="translate(-0.14 -0.1)"/><path class="cls-2" d="M292.58,506c.14,8.38-4.79,15.47-14.93,15.64-10,.16-14.89-6.72-15-15.1s5-15.45,15-15.62C286.91,490.78,292.43,497.16,292.58,506Zm-21,.27c.09,5.43,2,9.18,6.25,9.11,4.51-.07,5.93-4.11,5.84-9.16-.09-5.4-1.73-9.12-6.26-9C273.18,497.27,271.47,500.77,271.57,506.29Z" transform="translate(-0.14 -0.1)"/><path class="cls-2" d="M319.14,505l-13.34,2,.82,5.5,14.89-2.22v6.5L299.31,520l-4.37-29.29,22.17-3.3.95,6.36-13.91,2.07.7,4.71,13.35-2Z" transform="translate(-0.14 -0.1)"/><path class="cls-2" d="M351.59,498.62c.64,6.25-2.62,11.43-10.44,13.64-9.33,2.64-15.62-2.39-17.95-10.66-2.28-8.07.22-16.24,10-19,8.38-2.36,13.56,1.43,15.52,6.2l-8.29,2.34a4.5,4.5,0,0,0-5.76-2.62c-4.06,1.15-4.36,5.39-2.95,10.37,1.27,4.52,3.68,8.65,8.07,7.41,3.32-.93,3.57-3.61,3.47-5.32Z" transform="translate(-0.14 -0.1)"/><path class="cls-2" d="M356.67,482l-7.8,3.3-2.5-5.93,23.53-9.94,2.5,5.93-7.73,3.26,9,21.36-8,3.38Z" transform="translate(-0.14 -0.1)"/><path class="cls-2" d="M386.73,487.22l1.31,5.87-7.39,4.11-6.22-30.43,9.82-5.46,22.89,21.15-7.91,4.4-4.37-4.16Zm3.67-9.4c-3.48-3.38-6.49-6.45-8.48-8.64l-.1.06c.95,3.12,2,7.36,3,11.67Z" transform="translate(-0.14 -0.1)"/><path class="cls-2" d="M419.55,455.35l4,5.22-10.09,7.65L409.47,463Z" transform="translate(-0.14 -0.1)"/><path class="cls-2" d="M450.49,425.52c6,5.87,7.45,14.37.35,21.62s-15.31,5.67-21.29-.19-7.28-14.53-.33-21.63C435.75,418.66,444.16,419.32,450.49,425.52Zm-14.77,15c3.88,3.8,7.85,5.16,10.85,2.09,3.16-3.22,1.33-7.09-2.27-10.62-3.86-3.78-7.64-5.28-10.81-2C430.54,432.91,431.78,436.61,435.72,440.47Z" transform="translate(-0.14 -0.1)"/><path class="cls-2" d="M461.93,420.12c2.36,1.15,4.31.35,6-1.9s1.56-3.62.18-4.65c-1.56-1.17-2.94-.55-6.63,2.53-6.93,5.73-10.52,5.22-13.72,2.83-4-3-5.13-8.39-.2-15,5.13-6.87,10.71-7.07,14.7-4.61l-5,6.72c-1.41-.77-3.19-1.09-5,1.38-1.19,1.59-1.32,3,0,4s2.44.46,6.07-2.53c7.28-5.95,11-5.43,14.38-2.91,4.45,3.33,5,9.08-.22,16-4.9,6.57-10.56,7.76-15.52,4.87Z" transform="translate(-0.14 -0.1)"/><path class="cls-2" d="M478.65,395.63c2.49.84,4.32-.2,5.71-2.64,1.29-2.28,1.09-3.79-.41-4.63-1.69-1-3-.19-6.26,3.33-6.15,6.56-9.78,6.5-13.25,4.53-4.33-2.45-6.15-7.68-2.08-14.85,4.23-7.46,9.74-8.36,14-6.41l-4.14,7.29c-1.49-.58-3.3-.67-4.82,2-1,1.72-.93,3.16.46,3.95s2.47.15,5.7-3.27c6.49-6.81,10.24-6.77,13.91-4.69,4.84,2.74,6.08,8.38,1.79,15.95-4,7.12-9.51,9-14.79,6.77Z" transform="translate(-0.14 -0.1)"/><path class="cls-2" d="M478.49,365l-3.28,7.8-5.93-2.49,9.91-23.55,5.93,2.49L481.86,357l21.37,9-3.37,8Z" transform="translate(-0.14 -0.1)"/><path class="cls-2" d="M479.6,345,486,323.76l6.16,1.85-3.92,13.07,5.52,1.65,3.66-12.23,6.19,1.85-3.66,12.24,10.5,3.14L508,353.48Z" transform="translate(-0.14 -0.1)"/><path class="cls-2" d="M504.73,303.47l6.46,1L509.24,317l-6.47-1Z" transform="translate(-0.14 -0.1)"/><path class="cls-2" d="M81.73,262.41h8c5.92,0,9.35,3.74,9.35,9.09s-3.35,9.5-9.44,9.5h-7.9Zm5.46,14.64h2.08c3,0,4.17-2.07,4.17-5.55,0-3.08-1.13-5.14-4.1-5.14H87.19Z" transform="translate(-0.14 -0.1)"/><path class="cls-2" d="M115.8,273.48h-8.47V277h9.46l-.61,4H102.09V262.41h14.07v4h-8.83v3h8.47Z" transform="translate(-0.14 -0.1)"/><path class="cls-2" d="M119.26,262.41h13.9v4H124.6v3.61h8v4.06h-8V281h-5.34Z" transform="translate(-0.14 -0.1)"/><path class="cls-2" d="M149.6,273.48h-8.46V277h9.45l-.61,4H135.89V262.41H150v4h-8.82v3h8.46Z" transform="translate(-0.14 -0.1)"/><path class="cls-2" d="M153.07,281V262.41h6.51c2,4.19,4.79,9.84,5.57,12.13h.09c-.2-1.93-.25-5.21-.25-8.18v-3.95h5V281h-6.22c-1.57-3.37-4.93-10.34-5.81-12.79h-.07c.17,1.74.19,5.34.19,8.61V281Z" transform="translate(-0.14 -0.1)"/><path class="cls-2" d="M173.8,262.41h8c5.91,0,9.35,3.74,9.35,9.09s-3.35,9.5-9.44,9.5h-7.9Zm5.45,14.64h2.09c3,0,4.17-2.07,4.17-5.55,0-3.08-1.13-5.14-4.1-5.14h-2.16Z" transform="translate(-0.14 -0.1)"/><path class="cls-2" d="M200.15,262.41h8.62c4.19,0,7,2.33,7,6,0,4.18-3.2,6.1-7.14,6.1h-3.11V281h-5.38Zm5.38,8.23h2.22c1.54,0,2.64-.64,2.64-2.2s-1.11-2.21-2.62-2.21h-2.24Z" transform="translate(-0.14 -0.1)"/><path class="cls-2" d="M223.86,262.41v11.43c0,2.66,1.31,3.57,3,3.57s2.83-1.09,2.83-3.57V262.41h5.47v10.88c0,6.18-3.65,8.06-8.39,8.06-4.91,0-8.32-2-8.32-8V262.41Z" transform="translate(-0.14 -0.1)"/><path class="cls-2" d="M238.79,262.41H248c4.48,0,6.46,2.22,6.46,4.83a4.14,4.14,0,0,1-2.53,4,4.37,4.37,0,0,1,3,4.2c0,3.05-2.27,5.54-6.91,5.54h-9.31Zm8.33,7.17c1.5,0,2.1-.77,2.1-1.78,0-1.16-.83-1.72-2.14-1.72h-3v3.5Zm-3,7.76h2.78c1.79,0,2.55-.78,2.55-2.11,0-1.17-.72-2-2.45-2h-2.88Z" transform="translate(-0.14 -0.1)"/><path class="cls-2" d="M257.69,262.41h5.46V277h8.76l-.59,4H257.69Z" transform="translate(-0.14 -0.1)"/><path class="cls-2" d="M279.51,262.41V281h-5.46V262.41Z" transform="translate(-0.14 -0.1)"/><path class="cls-2" d="M300.2,274.88c-.68,3.89-3.54,6.47-8.64,6.47-6.09,0-9-4.11-9-9.51s2.91-9.78,9.3-9.78c5.46,0,7.95,3.18,8.31,6.4h-5.4a2.83,2.83,0,0,0-3-2.57c-2.65,0-3.55,2.51-3.55,5.76,0,3,.75,5.86,3.61,5.86a2.91,2.91,0,0,0,3-2.63Z" transform="translate(-0.14 -0.1)"/><path class="cls-2" d="M322.7,273.48h-8.47V277h9.45l-.6,4H309V262.41h14.07v4h-8.83v3h8.47Z" transform="translate(-0.14 -0.1)"/><path class="cls-2" d="M326.16,262.41h8c5.91,0,9.34,3.74,9.34,9.09s-3.34,9.5-9.43,9.5h-7.9Zm5.45,14.64h2.09c3,0,4.17-2.07,4.17-5.55,0-3.08-1.13-5.14-4.11-5.14h-2.15Z" transform="translate(-0.14 -0.1)"/><path class="cls-2" d="M351.81,262.41v11.43c0,2.66,1.31,3.57,3,3.57s2.83-1.09,2.83-3.57V262.41h5.47v10.88c0,6.18-3.65,8.06-8.39,8.06-4.91,0-8.32-2-8.32-8V262.41Z" transform="translate(-0.14 -0.1)"/><path class="cls-2" d="M383.52,274.88c-.68,3.89-3.54,6.47-8.64,6.47-6.09,0-9-4.11-9-9.51s2.91-9.78,9.3-9.78c5.46,0,8,3.18,8.31,6.4h-5.4a2.83,2.83,0,0,0-3-2.57c-2.65,0-3.55,2.51-3.55,5.76,0,3,.75,5.86,3.61,5.86a2.91,2.91,0,0,0,3-2.63Z" transform="translate(-0.14 -0.1)"/><path class="cls-2" d="M390.74,277.38,389.67,281h-5.31l5.87-18.59h7.06l6.1,18.59H397.7l-1.12-3.62Zm4.88-4c-.87-2.92-1.59-5.52-2-7.33h-.07c-.43,2-1.14,4.65-1.9,7.33Z" transform="translate(-0.14 -0.1)"/><path class="cls-2" d="M407.25,266.45h-5.32v-4h16v4H412.7V281h-5.45Z" transform="translate(-0.14 -0.1)"/><path class="cls-2" d="M425.69,262.41V281h-5.46V262.41Z" transform="translate(-0.14 -0.1)"/><path class="cls-2" d="M447.52,271.69c0,5.26-3.17,9.66-9.54,9.66s-9.27-4.37-9.27-9.64,3.31-9.65,9.55-9.65C444.12,262.06,447.52,266.13,447.52,271.69Zm-13.2-.06c0,3.42,1.14,5.79,3.83,5.79,2.84,0,3.77-2.52,3.77-5.69,0-3.39-1-5.74-3.84-5.74C435.43,266,434.32,268.17,434.32,271.63Z" transform="translate(-0.14 -0.1)"/><path class="cls-2" d="M450.52,281V262.41H457c1.95,4.19,4.79,9.84,5.57,12.13h.09c-.21-1.93-.25-5.21-.25-8.18v-3.95h5V281H461.2c-1.58-3.37-4.94-10.34-5.81-12.79h-.08c.18,1.74.19,5.34.19,8.61V281Z" transform="translate(-0.14 -0.1)"/><path class="cls-2" d="M258.93,116.87c0,9.35-5.63,17.18-17,17.18-11.12,0-16.49-7.78-16.49-17.13,0-9.52,5.89-17.16,17-17.16C252.89,99.76,258.93,107,258.93,116.87Zm-23.46-.1c0,6.07,2,10.3,6.81,10.3,5,0,6.69-4.49,6.69-10.12,0-6-1.76-10.21-6.82-10.21C237.45,106.74,235.47,110.62,235.47,116.77Z" transform="translate(-0.14 -0.1)"/><path class="cls-2" d="M275.08,107.55h-9.45v-7.18h28.51v7.18h-9.36v25.88h-9.7Z" transform="translate(-0.14 -0.1)"/><path class="cls-2" d="M303,100.37h24.72v7.18H312.44V114h14.25v7.21H312.44v12.24H303Z" transform="translate(-0.14 -0.1)"/></g></svg>