<?xml version="1.0" encoding="utf-8"?>
<!-- Generator: Adobe Illustrator 24.0.2, SVG Export Plug-In . SVG Version: 6.00 Build 0)  -->
<svg version="1.1" xmlns="http://www.w3.org/2000/svg" xmlns:xlink="http://www.w3.org/1999/xlink" x="0px" y="0px"
	 viewBox="0 0 7222.99 3737.82" style="enable-background:new 0 0 7222.99 3737.82;" xml:space="preserve">
<style type="text/css">
	.st0{fill-rule:evenodd;clip-rule:evenodd;fill:#ED1C24;stroke:#000000;stroke-width:10;}
	.st1{fill-rule:evenodd;clip-rule:evenodd;fill:none;stroke:#000000;stroke-width:10;}
	.st2{fill:#EC2527;}
	.st3{fill:#FFFFFF;}
	.st4{fill:none;stroke:#FFFFFF;stroke-width:5;stroke-miterlimit:10;}
	.st5{fill:none;stroke:#FFFFFF;stroke-width:3;stroke-linecap:round;stroke-linejoin:round;}
	.st6{fill:#FFFFFF;stroke:#FFFFFF;stroke-miterlimit:10;}
	.st7{fill:#EC2527;stroke:#FFFFFF;stroke-miterlimit:10;}
	.st8{fill:#EC2527;stroke:#FFFFFF;stroke-width:5;stroke-miterlimit:10;}
</style>
<g id="Front">
	<path class="st0" d="M1405.62,100.43l-91.84,73.46L777.51,291.42L53.9,743.22c0,0,51.43,495.88,279.16,598.73l462.81-128.57
		c0,0,99.17,947.66,66.12,2398.55c0,0,245.25,57.53,1061.54,22.05c675.87-29.39,977.06,25.72,977.06,25.72
		s-55.1-2240.62-55.1-2424.28l415.07,91.84c0,0,205.69-128.56,279.16-617.09L2735.3,295.11l-514.24-117.54l-58.77-66.12
		c0,0-411.4,154.28-753.01-14.69L1405.62,100.43z"/>
	<path class="st1" d="M3528.7,717.52c0,0-253.44,253.44-279.16,617.09"/>
	<path class="st1" d="M53.9,743.22c0,0,279.16,253.46,279.16,598.73"/>
	<path class="st1" d="M138.38,699.15c0,0,260.8,183.66,293.85,617.09"/>
	<path class="st1" d="M788.53,280.42c0,0,168.96,793.39,0,943.99"/>
	<path class="st1" d="M1405.62,100.43c0,0,0,242.43,367.31,238.75c367.32-3.68,389.36-227.73,389.36-227.73"/>
	<path class="st1" d="M1468.05,240.01c0,0,345.28,106.51,624.44,0"/>
	<path class="st1" d="M1313.78,173.88c0,0,113.87,264.47,459.14,268.15c345.28,3.68,459.16-260.8,459.16-260.8"/>
	<path class="st1" d="M2845.49,1235.43c0,0-179.97-36.73-117.54-951.35"/>
	<path class="st1" d="M3157.71,1301.54c0,0,11.02-323.24,304.87-635.46"/>
</g>
<g id="Logo-Front">
	<g id="Background">
		<rect x="1985.68" y="651.67" class="st2" width="545.57" height="544.62"/>
	</g>
	<g id="Images">
		<path id="p" class="st3" d="M2263.09,822.57c-3.52,0.14-6.42,2.81-6.84,6.3c-0.92,6.23,2.46,13.92,6.84,18.91
			c4.38-5,7.47-12.64,6.83-18.91l6.27-0.64c0.85,10-4.28,21.54-13.1,28.09c-8.83-6.55-14-18.08-13.21-28.09l1.53-4.48
			C2253.83,819.12,2258.54,817.12,2263.09,822.57z"/>
		<path id="p-2" class="st3" d="M2263.09,822.57c1.65-3.1,0.8-6.95-2-9.07c-4.93-3.91-13.28-4.83-19.79-3.53
			c2.13,6.29,7.21,12.79,13,15.37l-2.57,5.75c-9.09-4.26-16.52-14.47-17.78-25.39c10.09-4.37,22.64-3,30.93,2.61l3.12,3.57
			C2270.67,816.23,2270.07,821.26,2263.09,822.57z"/>
		<path id="p-3" class="st3" d="M2263.09,822.57c1.87,2.98,5.63,4.16,8.87,2.77c5.86-2.31,10.83-9.08,12.95-15.37
			c-6.5-1.3-14.68-0.15-19.78,3.53l-3.69-5.1c8.23-5.74,20.79-7.07,30.87-2.7c-1.26,10.92-8.68,21.13-17.72,25.48l-4.65,0.92
			C2264.76,832.26,2260.7,829.22,2263.09,822.57z"/>
		<path class="st3" d="M2297.54,1049.74c-4.54-8.05-13.79-12.49-26.05-12.49c-2.33,0.02-4.63,0.59-6.7,1.66
			c3.46-9.74,12.66-16.27,23-16.3c0.9,0.07,1.68-0.6,1.75-1.5c0.07-0.9-0.6-1.68-1.5-1.75c-0.08-0.01-0.17-0.01-0.26,0
			c-8.49,0.01-16.5,3.91-21.74,10.58l-0.44-0.82c-0.67-10.67-9.15-19.19-19.82-19.9c-0.37-0.13-0.74-0.27-1.09-0.44
			c-0.77-0.41-1.61-0.67-2.48-0.76h-0.1c-0.1,0.02-0.2,0.04-0.3,0.07c-0.1,0.01-0.19,0.04-0.28,0.07c-0.39,0.16-0.7,0.47-0.86,0.86
			c-0.03,0.09-0.05,0.18-0.06,0.27c-0.04,0.1-0.06,0.2-0.07,0.3l0,0c0,0,0,0,0,0.07c0.09,0.86,0.34,1.7,0.75,2.46
			c0.16,0.36,0.4,0.9,0.43,1c0.64,10.69,9.13,19.23,19.81,19.93c0.45,0.19,0.88,0.41,1.3,0.65l0.55,0.28
			c-1.03,1.93-1.82,3.97-2.37,6.08l-0.44-0.27c-1.63-1-4.09-2.54-7-2.54c-13.16,0-23,4.54-27.63,12.77
			c-5.32,9.41-3.5,22.5,5.13,36.86c9.1,15.16,17.29,18.75,23,18.75c0.56,0,1.12-0.04,1.67-0.11c2.18-0.25,4.25-1.09,6-2.42
			c1.67,1.28,3.65,2.1,5.74,2.38c5.74,0.81,14.72-1.76,24.92-18.59C2301.06,1072.57,2302.88,1059.32,2297.54,1049.74z
			 M2245.3,1015.03l14.47,14.54c-7.4-1.34-13.19-7.14-14.52-14.54H2245.3z M2247.6,1012.73c7.4,1.33,13.19,7.12,14.52,14.52
			L2247.6,1012.73z M2250.34,1047.01c-8.97,0.02-16.24,7.29-16.26,16.26c0.07,0.9-0.6,1.68-1.5,1.75s-1.68-0.6-1.75-1.5
			c-0.01-0.08-0.01-0.17,0-0.26c0.01-10.77,8.74-19.5,19.51-19.51c0.9-0.07,1.68,0.6,1.75,1.5c0.07,0.9-0.6,1.68-1.5,1.75
			C2250.51,1047.02,2250.42,1047.02,2250.34,1047.01z M2268.77,1051.08c-2.25,3.89-7.22,5.22-11.11,2.97
			c-1.23-0.71-2.26-1.74-2.97-2.97c-0.45-0.78-0.19-1.77,0.59-2.22c0.78-0.45,1.77-0.19,2.22,0.59c1.35,2.34,4.35,3.13,6.68,1.78
			c0.74-0.43,1.35-1.04,1.78-1.78c0.45-0.78,1.44-1.04,2.22-0.59C2268.95,1049.31,2269.22,1050.31,2268.77,1051.08z"/>
		<polygon class="st4" points="2132.15,1002.34 2122.95,1007.18 2124.7,996.93 2117.26,989.68 2127.55,988.18 2132.15,978.86 
			2136.75,988.18 2147.04,989.68 2139.59,996.93 2141.35,1007.18 		"/>
		<polygon class="st4" points="2387.31,864.77 2378.1,869.61 2379.86,859.36 2372.42,852.1 2382.7,850.61 2387.31,841.28 
			2391.91,850.61 2402.2,852.1 2394.75,859.36 2396.51,869.61 		"/>
		<polygon class="st4" points="2387.03,1002.2 2377.82,1007.04 2379.58,996.79 2372.14,989.53 2382.43,988.04 2387.03,978.71 
			2391.63,988.04 2401.92,989.53 2394.47,996.79 2396.23,1007.04 		"/>
		<polygon class="st4" points="2132.52,865.41 2123.32,870.25 2125.08,860.01 2117.63,852.75 2127.92,851.25 2132.52,841.93 
			2137.12,851.25 2147.41,852.75 2139.97,860.01 2141.73,870.25 		"/>
		<path class="st5" d="M2366.63,1041.57l-143.52-205c-5.41-7.74-11.93-12.53-14.54-10.7c-2.61,1.83-0.34,9.58,5.08,17.32l143.52,205
			L2366.63,1041.57z"/>
		<path class="st5" d="M2347.7,1054.85l-143.51-205c-5.42-7.74-7.7-15.5-5.08-17.33c2.62-1.83,9.12,3,14.54,10.7l143.52,205
			L2347.7,1054.85z"/>
		<path class="st5" d="M2347.7,1054.85l-143.51-205c-5.42-7.74-11.93-12.53-14.55-10.7c-2.62,1.83-0.33,9.59,5.08,17.32l143.52,205
			L2347.7,1054.85z"/>
		
			<rect x="2337.33" y="1050.6" transform="matrix(0.8192 -0.5736 0.5736 0.8192 -179.6068 1541.9434)" class="st5" width="36.16" height="10.38"/>
		<path class="st5" d="M2349.1,1076.99c1.5,2.13,4.74,2.43,7.25,0.68l19.3-13.52c2.51-1.75,3.34-4.91,1.84-7l-4.91-7l-28.39,19.88
			L2349.1,1076.99z"/>
		<polyline class="st5" points="2171.48,802.42 2180.23,796.29 2216.92,828.56 2157.49,773.13 2189.26,847.93 		"/>
		<path class="st5" d="M2319.7,812.8c7.68-11,28.84-32.93,51-39.26c-12,12.95-11.06,37.05-25.26,57.32
			c-7.68,11-19.68,15.82-26.8,10.83C2311.52,836.7,2312.02,823.77,2319.7,812.8z"/>
		<path class="st5" d="M2326.86,843.57c-0.59,16.84-6.82,31.46-56.49,96.7s-112.19,145.16-119,140.39
			c-6.81-4.77,46.91-90.85,91.22-159.84s55.95-79.85,71.55-86.17"/>
		<line class="st5" x1="2306.73" y1="890.29" x2="2277.12" y2="869.55"/>
		<path class="st6" d="M2344.48,884.37h-7.62v-6.65l0,0c0-1.28-0.69-2.46-1.81-3.07c-0.78-0.43-1.53-0.84-2.31-1.21
			c-0.22-0.13-0.44-0.22-0.62-0.32l-1.66-0.84c-0.28-0.12-0.59-0.28-0.87-0.41l-1.44-0.65c-0.33-0.16-0.66-0.29-1-0.41
			c-0.44-0.18-0.9-0.4-1.34-0.59c-0.44-0.19-0.66-0.28-1-0.41c-0.34-0.13-0.88-0.34-1.31-0.5l-1-0.37l-1.28-0.47
			c-0.35-0.12-0.72-0.25-1.07-0.34l-1.25-0.41c-0.34-0.12-0.71-0.22-1.06-0.31l-1.25-0.38l-1.09-0.28
			c-0.41-0.09-0.81-0.22-1.22-0.31l-1.09-0.25l-1.22-0.28c-0.38-0.06-0.72-0.16-1.09-0.22c-0.37-0.06-0.82-0.16-1.22-0.22l-1.1-0.19
			l-1.21-0.18c-0.38-0.07-0.75-0.1-1.1-0.16c-0.35-0.06-0.81-0.09-1.21-0.16l-1.1-0.09l-1.22-0.09c-0.37,0-0.75-0.07-1.09-0.07
			l-1.22-0.06c-0.37,0-0.75,0-1.09,0c-0.34,0-0.81,0-1.22,0h-1.09c-0.41,0-0.81,0-1.22,0c-0.41,0-0.75,0-1.09,0
			c-0.34,0-0.82,0-1.22,0.06l-1.09,0.1l-1.22,0.09c-0.37,0.02-0.74,0.07-1.1,0.13c-0.4,0-0.81,0.09-1.21,0.15
			c-0.4,0.06-0.75,0.1-1.1,0.16l-1.22,0.19l-1.09,0.18c-0.4,0.07-0.81,0.16-1.22,0.22c-0.41,0.06-0.72,0.16-1.09,0.22l-1.22,0.28
			c-0.37,0.1-0.72,0.16-1.09,0.25c-0.37,0.09-0.81,0.22-1.22,0.31c-0.41,0.09-0.72,0.19-1.09,0.32c-0.37,0.13-0.82,0.25-1.22,0.34
			c-0.4,0.09-0.72,0.22-1.09,0.34c-0.37,0.12-0.82,0.25-1.22,0.41l-1.1,0.38l-1.21,0.43c-0.38,0.13-0.72,0.28-1.1,0.41
			c-0.38,0.13-0.81,0.31-1.22,0.5l-1.09,0.44c-0.4,0.18-0.81,0.34-1.22,0.53l-1.06,0.47l-1.22,0.56c-0.34,0.15-0.72,0.34-1.06,0.5
			c-0.34,0.16-0.81,0.4-1.22,0.62c-0.41,0.22-0.72,0.38-1.06,0.53c-0.09,0.07-0.22,0.1-0.31,0.16c-0.09,0.06-0.22-0.09-0.31-0.16
			c-0.38-0.18-0.72-0.37-1.1-0.56c-0.38-0.19-0.81-0.41-1.21-0.62l-1.1-0.54l-1.22-0.56c-0.37-0.14-0.74-0.31-1.09-0.5
			c-0.41-0.18-0.81-0.34-1.19-0.53l-1.12-0.47c-0.41-0.15-0.78-0.31-1.19-0.47c-0.41-0.16-0.75-0.28-1.12-0.4l-1.19-0.44l-1.12-0.37
			l-1.19-0.38l-1.13-0.34c-0.4-0.13-0.78-0.25-1.18-0.35c-0.4-0.1-0.75-0.21-1.13-0.31c-0.38-0.1-0.78-0.22-1.18-0.31l-1.13-0.28
			c-0.4-0.09-0.78-0.19-1.18-0.25c-0.4-0.06-0.75-0.16-1.13-0.22c-0.38-0.06-0.78-0.16-1.19-0.22l-1.12-0.19l-1.16-0.18
			c-0.37-0.07-0.75-0.1-1.15-0.16c-0.4-0.06-0.78-0.09-1.16-0.12c-0.38-0.03-0.75-0.1-1.15-0.13l-1.16-0.09l-1.15-0.1
			c-0.38,0-0.79,0-1.16-0.06c-0.37-0.06-0.75,0-1.16,0h-1.15h-1.16c-0.4,0-0.78,0-1.18,0s-0.75,0-1.16,0l-1.19,0.06
			c-0.37,0-0.75,0-1.12,0.07l-1.19,0.09c-0.37,0-0.75,0.06-1.12,0.12c-0.37,0.06-0.78,0.1-1.19,0.16s-0.75,0.09-1.12,0.16
			l-1.19,0.18l-1.13,0.19c-0.4,0.06-0.78,0.16-1.18,0.22c-0.4,0.06-0.75,0.16-1.13,0.22l-1.18,0.28l-1.13,0.25
			c-0.4,0.09-0.81,0.22-1.22,0.31l-1.09,0.28c-0.41,0.13-0.81,0.25-1.22,0.35c-0.41,0.1-0.72,0.22-1.09,0.31
			c-0.37,0.09-0.81,0.28-1.22,0.41c-0.41,0.13-0.72,0.21-1.06,0.34c-0.34,0.13-0.84,0.31-1.25,0.44l-1.06,0.37
			c-0.44,0.16-0.85,0.34-1.28,0.5l-1,0.41l-1.35,0.56c-0.31,0.16-0.65,0.28-1,0.41l-1.43,0.65l-0.88,0.41
			c-0.56,0.28-1.09,0.56-1.65,0.81c-0.21,0.12-0.43,0.22-0.66,0.31l-2.31,1.26c-1.12,0.61-1.81,1.79-1.81,3.06l0,0v6.65h-7.56
			c-1.93,0-3.5,1.57-3.5,3.5v101.47c-0.01,1.93,1.55,3.5,3.48,3.5c0.42,0,0.85-0.07,1.24-0.22l15-5.49c19.7-7.55,41.49-7.55,61.19,0
			l3.84,1.4c0,0,0.06,0,0.13,0s0.06,0,0.09,0h0.09c0.1,0,0.19,0,0.28,0.06h0.16c0.06,0,0.09,0,0.16,0h1h0.18
			c0.04,0.01,0.09,0.01,0.13,0h0.09h0.09c0,0,0.1,0,0.13,0l3.84-1.4c19.71-7.55,41.51-7.55,61.22,0l15,5.5
			c0.39,0.14,0.8,0.21,1.22,0.21c1.92,0.01,3.49-1.54,3.5-3.46c0-0.01,0-0.02,0-0.03V887.77
			C2348.06,885.83,2346.42,884.35,2344.48,884.37z"/>
		<path class="st7" d="M2279.39,975.01c-3.06,1.13-6.09,2.28-9.12,3.47c-0.44,0.15-0.9,0.34-1.34,0.5l-0.72,0.28l-1,0.37
			c-0.44,0.16-0.84,0.32-1.28,0.5c-0.12,0.07-0.25,0.1-0.37,0.16V879.87c0.03-0.03,0.07-0.05,0.12-0.06l1-0.5
			c0.34-0.19,0.72-0.38,1.06-0.53l1-0.47l1-0.5c0.35-0.16,0.69-0.31,1-0.44c0.31-0.13,0.69-0.31,1-0.44l1-0.43
			c0.35-0.13,0.69-0.28,1-0.41c0.31-0.13,0.69-0.25,1-0.4l1-0.38l1-0.37c0.35-0.13,0.66-0.22,1-0.35l1.07-0.34
			c0.34-0.1,0.65-0.22,1-0.31c0.35-0.09,0.68-0.19,1.06-0.28l1-0.29c0.34-0.09,0.68-0.18,1.06-0.25c0.38-0.07,0.65-0.15,1-0.21
			c0.35-0.1,0.7-0.17,1.06-0.22l1-0.19l1.06-0.19c0.31-0.06,0.66-0.12,1-0.15c0.34-0.03,0.68-0.1,1.06-0.16
			c0.38-0.06,0.66-0.09,1-0.13c0.34-0.04,0.68-0.09,1.06-0.12l1-0.09l1.06-0.1c0.31,0,0.66,0,1-0.06c0.34-0.06,0.69,0,1-0.06h1
			c0.34,0,0.68,0,1,0h1c0.34,0,0.68,0,1,0c0.32,0,0.65,0,1,0c0.35,0,0.69,0,1,0.06l1,0.06l1,0.1l1,0.09c0.34,0,0.69,0.06,1,0.12
			c0.31,0.06,0.66,0.1,1,0.13c0.34,0.03,0.69,0.09,1,0.16l1,0.18l1,0.19c0.34,0.06,0.69,0.13,1,0.22c0.34,0.05,0.67,0.13,1,0.22
			c0.34,0.09,0.69,0.15,1,0.25c0.31,0.1,0.66,0.15,1,0.25l1.06,0.28l1,0.28c0.34,0.09,0.72,0.22,1.06,0.34s0.66,0.19,1,0.32
			l1.09,0.37c0.32,0.09,0.63,0.22,0.94,0.34s0.75,0.29,1.13,0.41c0.38,0.12,0.62,0.22,0.9,0.34l1.16,0.47l0.87,0.38
			c0.41,0.18,0.81,0.37,1.22,0.53l0.81,0.37l1.38,0.66c0.21,0.09,0.43,0.22,0.68,0.31l2.06,1v88.86
			C2312.78,964.17,2295.88,968.95,2279.39,975.01z"/>
		<path class="st7" d="M2212.74,967.05c-1.44-0.1-2.88-0.16-4.34-0.16c-4.75-0.02-9.49,0.58-14.09,1.78v-88.86
			c0.12-0.06,0.25-0.13,0.4-0.19l1.66-0.84l0.78-0.38l1.28-0.62l0.84-0.38c0.41-0.18,0.82-0.34,1.19-0.53l0.91-0.37l1.15-0.47
			c0.32-0.13,0.6-0.22,0.91-0.34s0.75-0.29,1.12-0.44c0.31-0.12,0.62-0.22,0.94-0.31l1.13-0.38l0.93-0.28
			c0.38-0.13,0.72-0.22,1.1-0.34l0.93-0.28c0.38-0.1,0.72-0.22,1.1-0.32c0.38-0.1,0.65-0.15,1-0.25c0.35-0.1,0.72-0.18,1.07-0.25
			c0.34-0.05,0.67-0.13,1-0.22l1.07-0.21l1-0.19l1.07-0.19c0.31-0.06,0.65-0.09,1-0.16s0.69-0.09,1.07-0.15
			c0.38-0.06,0.65-0.1,1-0.13l1-0.09l1-0.09c0.34,0,0.68-0.07,1-0.07l1-0.06c0.34,0,0.68,0,1,0s0.65,0,1,0h1c0.34,0,0.65,0,1,0
			c0.35,0,0.68,0,1,0s0.65,0,1,0.06c0.35,0.06,0.68,0,1,0.07l1,0.09l1,0.09c0.34,0,0.69,0.07,1,0.13l1,0.12
			c0.34,0.07,0.69,0.1,1,0.16l1,0.16l1,0.18c0.34,0.07,0.69,0.13,1,0.22c0.31,0.09,0.69,0.16,1,0.22c0.34,0.07,0.67,0.15,1,0.25
			l1,0.25l1,0.28l1,0.28c0.35,0.1,0.69,0.22,1,0.31c0.31,0.09,0.69,0.22,1,0.32l1,0.34c0.35,0.13,0.69,0.22,1,0.34l1,0.38l1,0.37
			c0.35,0.13,0.69,0.29,1,0.41c0.31,0.12,0.66,0.28,1,0.41l1,0.46l1,0.44c0.35,0.16,0.72,0.35,1.07,0.5l1,0.47
			c0.34,0.19,0.7,0.37,1.06,0.53c0.31,0.16,0.65,0.31,1,0.5c0.03,0.03,0.07,0.05,0.12,0.06V980.1c-0.12,0-0.22-0.09-0.34-0.12
			l-1.5-0.56l-0.69-0.29l-2.12-0.81C2240.44,973.29,2226.67,967.98,2212.74,967.05z"/>
		<path class="st7" d="M2193.43,980.57l-10.24,3.75v-93h4.12v82.05c-0.01,0.15-0.01,0.29,0,0.44c0.1,0.69,0.39,1.34,0.85,1.87
			c0.18,0.21,0.39,0.4,0.62,0.56c0.94,0.66,2.14,0.81,3.22,0.41c9-3.31,18-3.47,27.11-1.88
			C2210.33,975.57,2201.69,977.52,2193.43,980.57z"/>
		<path class="st7" d="M2340.99,984.38l-10.25-3.75c-8.26-3.07-16.89-5-25.67-5.74c9.12-1.56,18.11-1.41,27.11,1.87
			c1.81,0.67,3.82-0.24,4.49-2.05c0.15-0.39,0.22-0.81,0.22-1.23v-82.05h4.13v92.95H2340.99z"/>
	</g>
	<g id="Ring">
		<rect x="2061.76" y="901.82" class="st2" width="395.54" height="42.38"/>
		<circle class="st4" cx="2259.35" cy="925.53" r="258.4"/>
		<circle class="st4" cx="2259.35" cy="925.53" r="205.4"/>
		<path class="st8" d="M2055.26,901.81h409.22 M2464.48,945.56h-408.57"/>
	</g>
	<g id="Text">
		<path class="st3" d="M2028.92,913.12c8.37-0.1,15.43,4.87,15.54,15c0.11,10-6.8,14.85-15.18,14.94
			c-8.38,0.09-15.42-5.11-15.53-15.05C2013.64,918.69,2020.06,913.21,2028.92,913.12z M2029.06,934.12c5.43-0.06,9.2-1.91,9.15-6.2
			c-0.05-4.51-4.08-5.95-9.13-5.9c-5.4,0.06-9.13,1.68-9.08,6.21c0.05,4.23,3.54,5.96,9.06,5.9V934.12z"/>
		<path class="st3" d="M2044.09,909.35l-29.34-4.09l1.44-10.28c7-2.17,16.58-5.39,20.37-6.12v-0.15c-3.09-0.1-8.28-0.74-13-1.4
			l-6.24-0.87l1.15-7.87l29.34,4.09l-1.37,9.8c-5.66,1.75-17.41,5.52-21.47,6.36v0.11c2.8,0.12,8.48,0.88,13.65,1.6l6.58,0.92
			L2044.09,909.35z"/>
		<path class="st3" d="M2028.37,865.64l-2.28,8.15l-6.19-1.74l6.88-24.59l6.19,1.73l-2.26,8.08l22.33,6.3l-2.34,8.37L2028.37,865.64
			z"/>
		<path class="st3" d="M2052.62,846.89l4.69,3.76l-3.19,7.83l-23.89-19.84l4.24-10.41l31.07,2.17l-3.42,8.39l-6-0.51L2052.62,846.89
			z M2049.62,837.27c-4.83-0.47-9.09-1-12-1.45v0.11c2.7,1.84,6.19,4.49,9.68,7.21L2049.62,837.27z"/>
		<path class="st3" d="M2061.15,815.79l9.7,5.56l-4.18,7.31l-25.7-14.73l7.3-12.73c3.47-6,8.39-7.12,12.26-4.9
			c2.73,1.37,4.29,4.32,3.89,7.35c1.49-1.29,4.19-2,8.55,0.45l1.07,0.62c1.58,0.97,3.26,1.77,5,2.4l-4.11,7.18
			c-1.36-0.2-3.29-1.16-5.93-2.67l-0.66-0.38c-2.22-1.27-3.74-1.44-5.64,1.88L2061.15,815.79z M2055.9,812.79l2-3.48
			c1.43-2.51,0.92-4-0.81-5s-3.34-0.48-4.66,1.82l-2,3.52L2055.9,812.79z"/>
		<path class="st3" d="M2062.54,779.57l24.11,17.2l-5,7.08l-24.11-17.21L2062.54,779.57z"/>
		<path class="st3" d="M2097.54,761.07c6.26,5.57,8.14,14,1.4,21.57s-15,6.41-21.29,0.84s-8-14.16-1.37-21.59
			C2082.47,754.92,2090.9,755.18,2097.54,761.07z M2083.54,776.71c4.07,3.62,8.09,4.78,11,1.57c3-3.37,1-7.15-2.79-10.5
			c-4-3.59-7.88-4.9-10.9-1.52c-2.91,3.15-1.48,6.79,2.63,10.45H2083.54z"/>
		<path class="st3" d="M2108.59,740.51l-6.66,5.24l-4-5.06l20.07-15.8l4,5.05l-6.6,5.2l14.34,18.21l-6.82,5.37L2108.59,740.51z"/>
		<path class="st3" d="M2151.04,725.2l-11.53,7l2.88,4.75l12.87-7.8l2.51,6l-19.23,11.62l-15.31-25.32l19.16-11.62l3.33,5.5
			l-12,7.29l2.47,4.08l11.54-7L2151.04,725.2z"/>
		<path class="st3" d="M2166.54,724.64l0.72,6l-7.72,3.33l-3.2-30.89l10.29-4.51l20.71,23.33l-8.32,3.61l-3.94-4.57L2166.54,724.64z
			 M2171.11,715.64c-3.13-3.71-5.82-7.06-7.59-9.44h-0.11c0.64,3.2,1.29,7.53,1.88,11.91L2171.11,715.64z"/>
		<path class="st3" d="M2212.16,705.08c0.55,6.27-2.79,11.4-10.64,13.49c-9.37,2.5-15.59-2.62-17.8-10.93
			c-2.16-8.1,0.47-16.24,10.3-18.86c8.41-2.21,13.52,1.63,15.42,6.43l-8.32,2.22c-0.85-2.32-3.4-3.53-5.73-2.71
			c-4.07,1.09-4.43,5.33-3.1,10.33c1.21,4.53,3.56,8.7,8,7.53c3.34-0.89,3.62-3.56,3.55-5.27L2212.16,705.08z"/>
		<path class="st3" d="M2213.79,684.37l8.62-1.15l1.47,11l9-1.2l-1.47-11l8.64-1.16l3.93,29.35l-8.64,1.16l-1.6-12l-9,1.2l1.6,12
			l-8.62,1.15L2213.79,684.37z"/>
		<path class="st3" d="M2270.84,698.11h-13.49v5.55h15.06l-1,6.43h-22.43l0.06-29.61h22.41v6.43h-14.06v4.76h13.48L2270.84,698.11z"
			/>
		<path class="st3" d="M2285.11,700.35l-1.45,11.09l-8.36-1.09l3.84-29.37l14.55,1.91c6.92,0.9,9.78,5,9.2,9.47
			c-0.23,3.06-2.38,5.62-5.35,6.39c1.77,0.89,3.49,3.1,2.84,8.08l-0.16,1.22c-0.29,1.82-0.41,3.67-0.34,5.52l-8.2-1.08
			c-0.33-1.33-0.18-3.47,0.22-6.49l0.1-0.76c0.33-2.53-0.09-4-3.89-4.5L2285.11,700.35z M2285.89,694.35l4,0.52
			c2.87,0.37,4.07-0.68,4.33-2.66c0.26-1.98-0.84-3.27-3.47-3.61l-4-0.53L2285.89,694.35z"/>
		<path class="st3" d="M2312.69,707.57c-0.2,2.62,1.27,4.14,4,4.87c2.54,0.68,3.94,0.11,4.39-1.55c0.51-1.88-0.57-2.93-4.79-5.23
			c-7.89-4.31-8.74-7.85-7.7-11.69c1.29-4.8,5.9-7.87,13.85-5.73c8.28,2.23,10.53,7.34,9.71,12l-8.09-2.19
			c0.19-1.59-0.18-3.36-3.15-4.16c-1.92-0.52-3.29-0.11-3.71,1.43c-0.42,1.54,0.47,2.44,4.59,4.71c8.22,4.57,9.11,8.21,8,12.28
			c-1.45,5.37-6.6,8-15,5.72c-7.91-2.12-11.1-6.94-10.25-12.61L2312.69,707.57z"/>
		<path class="st3" d="M2335.61,705c2.55-3.66,4.66-7.61,6.3-11.76l7.25,2.69c-1.9,4.2-4.62,7.98-8,11.11L2335.61,705z"/>
		<path class="st3" d="M2364.32,704l19.61,10.29l-3,5.7l-12.07-6.35l-2.68,5.1l11.3,5.94l-3,5.72l-11.31-5.94l-5.09,9.71l-7.53-4
			L2364.32,704z"/>
		<path class="st3" d="M2397.78,744.88l-11.1-7.66l-3.14,4.57l12.39,8.55l-4.45,4.74L2373,742.34l16.82-24.37l18.44,12.72l-3.65,5.3
			l-11.57-8l-2.71,3.93l11.1,7.65L2397.78,744.88z"/>
		<path class="st3" d="M2414.45,735.48l9.42,8.55c7,6.34,7,14.43,1.3,20.73c-5.7,6.3-14.12,7.63-21.3,1.11l-9.33-8.46
			L2414.45,735.48z M2405.2,758.57l2.46,2.23c3.49,3.17,7.14,2,10.87-2.09c3.29-3.63,4.17-7.28,0.67-10.46l-2.54-2.31L2405.2,758.57
			z"/>
		<path class="st3" d="M2440.65,787.81l-8.7-10.31l-4.24,3.57l9.7,11.52l-5.54,3.4l-14.46-17.16l22.65-19.08l14.48,17.14l-5,4.14
			l-9-10.75l-3.65,3.07l8.65,10.32L2440.65,787.81z"/>
		<path class="st3" d="M2448.14,800.16l-9.41,6l-4.55-7.09l24.9-16l7.94,12.34c3.77,5.87,2.45,10.73-1.3,13.14
			c-2.47,1.79-5.81,1.81-8.31,0.06c0.46,1.93-0.13,4.67-4.34,7.38l-1,0.67c-1.58,0.96-3.06,2.06-4.43,3.31l-4.47-7
			c0.8-1.11,2.54-2.38,5.1-4l0.64-0.41c2.15-1.38,3-2.65,0.93-5.87L2448.14,800.16z M2453.23,796.88l2.17,3.38
			c1.56,2.43,3.14,2.67,4.82,1.59c1.68-1.08,2-2.75,0.52-5l-2.2-3.39L2453.23,796.88z"/>
		<path class="st3" d="M2458.05,828.26l-5.95,0.85l-3.56-7.68l30.81-3.9l4.71,10.21l-22.8,21.23l-3.8-8.23l4.48-4L2458.05,828.26z
			 M2467.14,832.62c3.64-3.21,6.93-6,9.27-7.8l-0.05-0.1c-3.19,0.71-7.5,1.45-11.87,2.15L2467.14,832.62z"/>
		<path class="st3" d="M2484.6,846.81l-2.64-8l6.11-2l8,24.27l-6.11,2l-2.62-8l-22,7.23l-2.8-8.26L2484.6,846.81z"/>
		<path class="st3" d="M2499.1,874.94l-28.85,6.63l-1.95-8.49l28.86-6.63L2499.1,874.94z"/>
		<path class="st3" d="M2489.75,913.38c-8.32,1-15.87-3.2-17.06-13.28c-1.18-9.89,5.17-15.49,13.49-16.48
			c8.47-1,15.89,3.43,17.06,13.31C2504.34,906.19,2498.54,912.33,2489.75,913.38z M2487.37,892.49c-5.41,0.64-8.95,2.88-8.44,7.15
			c0.53,4.48,4.69,5.48,9.7,4.89c5.37-0.64,8.9-2.65,8.37-7.15C2496.54,893.19,2492.84,891.84,2487.37,892.49z"/>
		<path class="st3" d="M2475.07,918.74l29.59,0.94l-0.33,10.37c-6.76,2.91-15.91,7.13-19.59,8.26v0.15c3.08-0.24,8.31-0.15,13,0
			l6.29,0.2l-0.25,7.91l-29.6-0.94l0.32-9.89c5.43-2.34,16.71-7.34,20.66-8.61v-0.12c-2.79,0.19-8.52,0-13.73-0.13l-6.65-0.21
			L2475.07,918.74z"/>
		<path class="st3" d="M2029.82,964.25l-6.48,0.92l-1.8-12.53l6.48-0.92L2029.82,964.25z"/>
		<path class="st3" d="M2026.15,987.86h-6l-2.36-8.11l31.05,0.7l3.14,10.78l-25.72,17.59l-2.54-8.7l5-3.34L2026.15,987.86z
			 M2034.54,993.57c4.08-2.64,7.73-4.89,10.32-6.34v-0.12c-3.25,0.24-7.63,0.33-12.05,0.37L2034.54,993.57z"/>
		<path class="st3" d="M2047.77,1028.5l-5.33-12.39l-5.11,2.2l6,13.83l-6.29,1.65l-8.88-20.61l27.17-11.71l8.86,20.59l-5.91,2.51
			l-5.56-12.92l-4.38,1.92l5.34,12.39L2047.77,1028.5z"/>
		<path class="st3" d="M2065.67,1024.79l11,19.23l-5.58,3.19l-6.79-11.84l-5,2.86l6.34,11.08l-5.6,3.26l-6.34-11.08l-9.52,5.44
			l-4.23-7.38L2065.67,1024.79z"/>
		<path class="st3" d="M2083.39,1077.85c-6.67,5.05-15.3,5.25-21.42-2.83c-6.12-8.08-3.37-16,3.32-21c6.69-5,15.44-5.06,21.43,2.86
			C2092.35,1064.28,2090.46,1072.5,2083.39,1077.85z M2070.79,1061.04c-4.34,3.28-6.26,7-3.67,10.42c2.72,3.6,6.82,2.36,10.84-0.68
			c4.31-3.26,6.34-6.78,3.61-10.39C2079.02,1057.03,2075.18,1057.71,2070.79,1061.04z"/>
		<path class="st3" d="M2101.22,1096.34l-4.58,4.67l-9-8.87l4.59-4.67L2101.22,1096.34z"/>
		<path class="st3" d="M2128.02,1120.96l-10.82-8.07l-3.32,4.46l12.07,9l-4.62,4.57l-18-13.41l17.7-23.75l18,13.4l-3.84,5.16
			l-11.28-8.41l-2.85,3.83l10.82,8.06L2128.02,1120.96z"/>
		<path class="st3" d="M2144.18,1117.7l-7.34-4.21l3.2-5.58l22.16,12.71l-3.2,5.58l-7.28-4.18l-11.54,20.11l-7.53-4.32
			L2144.18,1117.7z"/>
		<path class="st3" d="M2163.84,1121.27l20.33,8.77l-2.55,5.9l-12.53-5.37l-2.27,5.29l11.72,5.02l-2.56,5.94l-11.72-5.06
			l-4.35,10.06l-7.8-3.36L2163.84,1121.27z"/>
		<path class="st3" d="M2210.54,1153.39c-2.41,8-9.25,13.29-19,10.38c-9.54-2.86-12.16-10.91-9.75-18.94
			c2.41-8.03,9.47-13.21,19-10.36C2209.74,1137.15,2213.06,1144.91,2210.54,1153.39z M2190.43,1147.28
			c-1.56,5.2-0.92,9.35,3.2,10.58c4.32,1.29,6.89-2.12,8.34-7c1.56-5.18,1.12-9.22-3.22-10.52c-4.06-1.17-6.76,1.65-8.34,6.94
			L2190.43,1147.28z"/>
		<path class="st3" d="M2235.14,1157.09l-0.86,6.48l-12.55-1.66l0.86-6.49L2235.14,1157.09z"/>
		<path class="st3" d="M2278.12,1157.57c0.14,8.38-4.79,15.47-14.93,15.64c-10,0.16-14.89-6.72-15-15.1c-0.11-8.38,5-15.45,15-15.62
			C2272.45,1142.35,2277.97,1148.73,2278.12,1157.57z M2257.12,1157.84c0.09,5.43,2,9.18,6.25,9.11c4.51-0.07,5.93-4.11,5.84-9.16
			c-0.09-5.4-1.73-9.12-6.26-9c-4.23,0.05-5.94,3.55-5.84,9.07L2257.12,1157.84z"/>
		<path class="st3" d="M2304.68,1156.57l-13.34,2l0.82,5.5l14.89-2.22v6.5l-22.2,3.22l-4.37-29.29l22.17-3.3l0.95,6.36l-13.91,2.07
			l0.7,4.71l13.35-2L2304.68,1156.57z"/>
		<path class="st3" d="M2337.13,1150.19c0.64,6.25-2.62,11.43-10.44,13.64c-9.33,2.64-15.62-2.39-17.95-10.66
			c-2.28-8.07,0.22-16.24,10-19c8.38-2.36,13.56,1.43,15.52,6.2l-8.29,2.34c-0.88-2.3-3.45-3.47-5.76-2.62
			c-4.06,1.15-4.36,5.39-2.95,10.37c1.27,4.52,3.68,8.65,8.07,7.41c3.32-0.93,3.57-3.61,3.47-5.32L2337.13,1150.19z"/>
		<path class="st3" d="M2342.21,1133.57l-7.8,3.3l-2.5-5.93l23.53-9.94l2.5,5.93l-7.73,3.26l9,21.36l-8,3.38L2342.21,1133.57z"/>
		<path class="st3" d="M2372.27,1138.79l1.31,5.87l-7.39,4.11l-6.22-30.43l9.82-5.46l22.89,21.15l-7.91,4.4l-4.37-4.16
			L2372.27,1138.79z M2375.94,1129.39c-3.48-3.38-6.49-6.45-8.48-8.64l-0.1,0.06c0.95,3.12,2,7.36,3,11.67L2375.94,1129.39z"/>
		<path class="st3" d="M2405.09,1106.92l4,5.22l-10.09,7.65l-3.99-5.22L2405.09,1106.92z"/>
		<path class="st3" d="M2436.03,1077.09c6,5.87,7.45,14.37,0.35,21.62s-15.31,5.67-21.29-0.19c-5.98-5.86-7.28-14.53-0.33-21.63
			C2421.29,1070.23,2429.7,1070.89,2436.03,1077.09z M2421.26,1092.09c3.88,3.8,7.85,5.16,10.85,2.09
			c3.16-3.22,1.33-7.09-2.27-10.62c-3.86-3.78-7.64-5.28-10.81-2c-2.95,2.92-1.71,6.62,2.23,10.48V1092.09z"/>
		<path class="st3" d="M2447.47,1071.69c2.36,1.15,4.31,0.35,6-1.9c1.69-2.25,1.56-3.62,0.18-4.65c-1.56-1.17-2.94-0.55-6.63,2.53
			c-6.93,5.73-10.52,5.22-13.72,2.83c-4-3-5.13-8.39-0.2-15c5.13-6.87,10.71-7.07,14.7-4.61l-5,6.72c-1.41-0.77-3.19-1.09-5,1.38
			c-1.19,1.59-1.32,3,0,4s2.44,0.46,6.07-2.53c7.28-5.95,11-5.43,14.38-2.91c4.45,3.33,5,9.08-0.22,16
			c-4.9,6.57-10.56,7.76-15.52,4.87L2447.47,1071.69z"/>
		<path class="st3" d="M2464.19,1047.2c2.49,0.84,4.32-0.2,5.71-2.64c1.29-2.28,1.09-3.79-0.41-4.63c-1.69-1-3-0.19-6.26,3.33
			c-6.15,6.56-9.78,6.5-13.25,4.53c-4.33-2.45-6.15-7.68-2.08-14.85c4.23-7.46,9.74-8.36,14-6.41l-4.14,7.29
			c-1.49-0.58-3.3-0.67-4.82,2c-1,1.72-0.93,3.16,0.46,3.95c1.39,0.79,2.47,0.15,5.7-3.27c6.49-6.81,10.24-6.77,13.91-4.69
			c4.84,2.74,6.08,8.38,1.79,15.95c-4,7.12-9.51,9-14.79,6.77L2464.19,1047.2z"/>
		<path class="st3" d="M2464.03,1016.57l-3.28,7.8l-5.93-2.49l9.91-23.55l5.93,2.49l-3.26,7.75l21.37,9l-3.37,8L2464.03,1016.57z"/>
		<path class="st3" d="M2465.14,996.57l6.4-21.24l6.16,1.85l-3.92,13.07l5.52,1.65l3.66-12.23l6.19,1.85l-3.66,12.24l10.5,3.14
			l-2.45,8.15L2465.14,996.57z"/>
		<path class="st3" d="M2490.27,955.04l6.46,1l-1.95,12.53l-6.47-1L2490.27,955.04z"/>
		<path class="st3" d="M2067.27,913.98h8c5.92,0,9.35,3.74,9.35,9.09c0,5.35-3.35,9.5-9.44,9.5h-7.9L2067.27,913.98z
			 M2072.73,928.62h2.08c3,0,4.17-2.07,4.17-5.55c0-3.08-1.13-5.14-4.1-5.14h-2.15V928.62z"/>
		<path class="st3" d="M2101.34,925.05h-8.47v3.52h9.46l-0.61,4h-14.09v-18.59h14.07v4h-8.83v3h8.47V925.05z"/>
		<path class="st3" d="M2104.8,913.98h13.9v4h-8.56v3.61h8v4.06h-8v6.92h-5.34V913.98z"/>
		<path class="st3" d="M2135.14,925.05h-8.46v3.52h9.45l-0.61,4h-14.09v-18.59h14.11v4h-8.82v3h8.46L2135.14,925.05z"/>
		<path class="st3" d="M2138.61,932.57v-18.59h6.51c2,4.19,4.79,9.84,5.57,12.13h0.09c-0.2-1.93-0.25-5.21-0.25-8.18v-3.95h5v18.59
			h-6.22c-1.57-3.37-4.93-10.34-5.81-12.79h-0.07c0.17,1.74,0.19,5.34,0.19,8.61v4.18H2138.61z"/>
		<path class="st3" d="M2159.34,913.98h8c5.91,0,9.35,3.74,9.35,9.09c0,5.35-3.35,9.5-9.44,9.5h-7.9L2159.34,913.98z
			 M2164.79,928.62h2.09c3,0,4.17-2.07,4.17-5.55c0-3.08-1.13-5.14-4.1-5.14h-2.16V928.62z"/>
		<path class="st3" d="M2185.69,913.98h8.62c4.19,0,7,2.33,7,6c0,4.18-3.2,6.1-7.14,6.1h-3.11v6.49h-5.38L2185.69,913.98z
			 M2191.07,922.21h2.22c1.54,0,2.64-0.64,2.64-2.2s-1.11-2.21-2.62-2.21h-2.24V922.21z"/>
		<path class="st3" d="M2209.4,913.98v11.43c0,2.66,1.31,3.57,3,3.57s2.83-1.09,2.83-3.57v-11.43h5.47v10.88
			c0,6.18-3.65,8.06-8.39,8.06c-4.91,0-8.32-2-8.32-8v-10.94H2209.4z"/>
		<path class="st3" d="M2224.33,913.98h9.21c4.48,0,6.46,2.22,6.46,4.83c0.08,1.73-0.93,3.33-2.53,4c1.81,0.6,3.02,2.3,3,4.2
			c0,3.05-2.27,5.54-6.91,5.54h-9.31L2224.33,913.98z M2232.66,921.15c1.5,0,2.1-0.77,2.1-1.78c0-1.16-0.83-1.72-2.14-1.72h-3v3.5
			H2232.66z M2229.66,928.91h2.78c1.79,0,2.55-0.78,2.55-2.11c0-1.17-0.72-2-2.45-2h-2.88V928.91z"/>
		<path class="st3" d="M2243.23,913.98h5.46v14.59h8.76l-0.59,4h-13.63V913.98z"/>
		<path class="st3" d="M2265.05,913.98v18.59h-5.46v-18.59H2265.05z"/>
		<path class="st3" d="M2285.74,926.45c-0.68,3.89-3.54,6.47-8.64,6.47c-6.09,0-9-4.11-9-9.51s2.91-9.78,9.3-9.78
			c5.46,0,7.95,3.18,8.31,6.4h-5.4c-0.14-1.53-1.47-2.67-3-2.57c-2.65,0-3.55,2.51-3.55,5.76c0,3,0.75,5.86,3.61,5.86
			c1.54,0.05,2.85-1.1,3-2.63H2285.74z"/>
		<path class="st3" d="M2308.24,925.05h-8.47v3.52h9.45l-0.6,4h-14.08v-18.59h14.07v4h-8.83v3h8.47L2308.24,925.05z"/>
		<path class="st3" d="M2311.7,913.98h8c5.91,0,9.34,3.74,9.34,9.09c0,5.35-3.34,9.5-9.43,9.5h-7.9L2311.7,913.98z M2317.15,928.62
			h2.09c3,0,4.17-2.07,4.17-5.55c0-3.08-1.13-5.14-4.11-5.14h-2.15V928.62z"/>
		<path class="st3" d="M2337.35,913.98v11.43c0,2.66,1.31,3.57,3,3.57s2.83-1.09,2.83-3.57v-11.43h5.47v10.88
			c0,6.18-3.65,8.06-8.39,8.06c-4.91,0-8.32-2-8.32-8v-10.94H2337.35z"/>
		<path class="st3" d="M2369.06,926.45c-0.68,3.89-3.54,6.47-8.64,6.47c-6.09,0-9-4.11-9-9.51s2.91-9.78,9.3-9.78
			c5.46,0,8,3.18,8.31,6.4h-5.4c-0.14-1.53-1.47-2.67-3-2.57c-2.65,0-3.55,2.51-3.55,5.76c0,3,0.75,5.86,3.61,5.86
			c1.54,0.05,2.85-1.1,3-2.63H2369.06z"/>
		<path class="st3" d="M2376.28,928.95l-1.07,3.62h-5.31l5.87-18.59h7.06l6.1,18.59h-5.69l-1.12-3.62H2376.28z M2381.16,924.95
			c-0.87-2.92-1.59-5.52-2-7.33h-0.07c-0.43,2-1.14,4.65-1.9,7.33H2381.16z"/>
		<path class="st3" d="M2392.79,918.02h-5.32v-4h16v4h-5.23v14.55h-5.45V918.02z"/>
		<path class="st3" d="M2411.23,913.98v18.59h-5.46v-18.59H2411.23z"/>
		<path class="st3" d="M2433.06,923.26c0,5.26-3.17,9.66-9.54,9.66c-6.37,0-9.27-4.37-9.27-9.64s3.31-9.65,9.55-9.65
			C2429.66,913.63,2433.06,917.7,2433.06,923.26z M2419.86,923.2c0,3.42,1.14,5.79,3.83,5.79c2.84,0,3.77-2.52,3.77-5.69
			c0-3.39-1-5.74-3.84-5.74C2420.97,917.57,2419.86,919.74,2419.86,923.2L2419.86,923.2z"/>
		<path class="st3" d="M2436.06,932.57v-18.59h6.48c1.95,4.19,4.79,9.84,5.57,12.13h0.09c-0.21-1.93-0.25-5.21-0.25-8.18v-3.95h5
			v18.59h-6.21c-1.58-3.37-4.94-10.34-5.81-12.79h-0.08c0.18,1.74,0.19,5.34,0.19,8.61v4.18H2436.06z"/>
		<path class="st3" d="M2244.47,768.44c0,9.35-5.63,17.18-17,17.18c-11.12,0-16.49-7.78-16.49-17.13c0-9.52,5.89-17.16,17-17.16
			C2238.43,751.33,2244.47,758.57,2244.47,768.44z M2221.01,768.34c0,6.07,2,10.3,6.81,10.3c5,0,6.69-4.49,6.69-10.12
			c0-6-1.76-10.21-6.82-10.21C2222.99,758.31,2221.01,762.19,2221.01,768.34z"/>
		<path class="st3" d="M2260.62,759.12h-9.45v-7.18h28.51v7.18h-9.36V785h-9.7V759.12z"/>
		<path class="st3" d="M2288.54,751.94h24.72v7.18h-15.28v6.45h14.25v7.21h-14.25v12.24h-9.44V751.94z"/>
	</g>
</g>
<g id="Back">
	<path class="st0" d="M5021.49,73.73l-91.83,73.46l-536.29,117.54l-723.61,451.8c0,0,51.43,495.88,279.16,598.72l462.83-128.57
		c0,0,99.17,947.68,66.1,2398.57c0,0,245.24,57.53,1061.55,22.03c675.86-29.37,977.05,25.71,977.05,25.71
		s-55.1-2240.61-55.1-2424.26l415.08,91.83c0,0,205.69-128.57,279.16-617.09l-804.42-415.07l-514.24-117.55l-58.76-66.11
		c0,0-411.41,154.27-753.01-14.69L5021.49,73.73z"/>
	<path class="st1" d="M7144.56,690.82c0,0-253.44,253.44-279.16,617.09"/>
	<path class="st1" d="M3669.76,716.54c0,0,279.16,253.45,279.16,598.72"/>
	<path class="st1" d="M3754.24,672.46c0,0,260.8,183.66,293.85,617.09"/>
	<path class="st1" d="M4404.39,253.72c0,0,168.96,793.4,0,943.99"/>
	<path class="st1" d="M6461.35,1208.74c0,0-179.98-36.74-117.54-951.36"/>
	<path class="st1" d="M6773.58,1274.86c0,0,11.02-323.24,304.86-635.47"/>
	<path class="st1" d="M4937.61,161.08c0,0,147.66,100.69,462.67,85.43c387.63-18.75,436.64-95.66,436.64-95.66"/>
</g>
<g id="Logo_Back">
	<g id="Background_1_">
		<rect x="5143.5" y="422.65" class="st2" width="545.57" height="544.62"/>
	</g>
	<g id="Images_1_">
		<path id="p_1_" class="st3" d="M5420.91,593.55c-3.52,0.14-6.42,2.81-6.84,6.3c-0.92,6.23,2.46,13.92,6.84,18.91
			c4.38-5,7.47-12.64,6.83-18.91l6.27-0.64c0.85,10-4.28,21.54-13.1,28.09c-8.83-6.55-14-18.08-13.21-28.09l1.53-4.48
			C5411.65,590.1,5416.36,588.1,5420.91,593.55z"/>
		<path id="p-2_1_" class="st3" d="M5420.91,593.55c1.65-3.1,0.8-6.95-2-9.07c-4.93-3.91-13.28-4.83-19.79-3.53
			c2.13,6.29,7.21,12.79,13,15.37l-2.57,5.75c-9.09-4.26-16.52-14.47-17.78-25.39c10.09-4.37,22.64-3,30.93,2.61l3.12,3.57
			C5428.49,587.21,5427.89,592.24,5420.91,593.55z"/>
		<path id="p-3_1_" class="st3" d="M5420.91,593.55c1.87,2.98,5.63,4.16,8.87,2.77c5.86-2.31,10.83-9.08,12.95-15.37
			c-6.5-1.3-14.68-0.15-19.78,3.53l-3.69-5.1c8.23-5.74,20.79-7.07,30.87-2.7c-1.26,10.92-8.68,21.13-17.72,25.48l-4.65,0.92
			C5422.58,603.24,5418.52,600.2,5420.91,593.55z"/>
		<path class="st3" d="M5455.36,820.72c-4.54-8.05-13.79-12.49-26.05-12.49c-2.33,0.02-4.63,0.59-6.7,1.66
			c3.46-9.74,12.66-16.27,23-16.3c0.9,0.07,1.68-0.6,1.75-1.5s-0.6-1.68-1.5-1.75c-0.08-0.01-0.17-0.01-0.25,0
			c-8.49,0.01-16.5,3.91-21.74,10.58l-0.44-0.82c-0.67-10.67-9.15-19.19-19.82-19.9c-0.37-0.13-0.74-0.27-1.09-0.44
			c-0.77-0.41-1.61-0.67-2.48-0.76h-0.1c-0.1,0.02-0.2,0.04-0.3,0.07c-0.1,0.01-0.19,0.04-0.28,0.07c-0.39,0.16-0.7,0.47-0.86,0.86
			c-0.03,0.09-0.05,0.18-0.06,0.27c-0.04,0.1-0.06,0.2-0.07,0.3l0,0c0,0,0,0,0,0.07c0.09,0.86,0.34,1.7,0.75,2.46
			c0.16,0.36,0.4,0.9,0.43,1c0.64,10.69,9.13,19.23,19.81,19.93c0.45,0.19,0.88,0.41,1.3,0.65l0.55,0.28
			c-1.03,1.93-1.82,3.97-2.37,6.08l-0.44-0.27c-1.63-1-4.09-2.54-7-2.54c-13.16,0-23,4.54-27.63,12.77
			c-5.32,9.41-3.5,22.5,5.13,36.86c9.1,15.16,17.29,18.75,23,18.75c0.56,0,1.12-0.04,1.67-0.11c2.18-0.25,4.25-1.09,6-2.42
			c1.67,1.28,3.65,2.1,5.74,2.38c5.74,0.81,14.72-1.76,24.92-18.59C5458.88,843.55,5460.7,830.3,5455.36,820.72z M5403.12,786.01
			l14.47,14.54c-7.4-1.34-13.19-7.14-14.52-14.54H5403.12z M5405.42,783.71c7.4,1.33,13.19,7.12,14.52,14.52L5405.42,783.71z
			 M5408.16,817.99c-8.97,0.02-16.24,7.29-16.26,16.26c0.07,0.9-0.6,1.68-1.5,1.75s-1.68-0.6-1.75-1.5c-0.01-0.08-0.01-0.17,0-0.26
			c0.01-10.77,8.74-19.5,19.51-19.51c0.9-0.07,1.68,0.6,1.75,1.5c0.07,0.9-0.6,1.68-1.5,1.75
			C5408.33,818,5408.24,818,5408.16,817.99z M5426.59,822.06c-2.25,3.89-7.22,5.22-11.11,2.97c-1.23-0.71-2.26-1.74-2.97-2.97
			c-0.45-0.78-0.19-1.77,0.59-2.22c0.78-0.45,1.77-0.19,2.22,0.59c1.35,2.34,4.35,3.13,6.68,1.78c0.74-0.43,1.35-1.04,1.78-1.78
			c0.45-0.78,1.44-1.04,2.22-0.59C5426.77,820.29,5427.04,821.28,5426.59,822.06z"/>
		<polygon class="st4" points="5289.97,773.32 5280.77,778.16 5282.52,767.91 5275.08,760.66 5285.37,759.16 5289.97,749.84 
			5294.57,759.16 5304.86,760.66 5297.41,767.91 5299.17,778.16 		"/>
		<polygon class="st4" points="5545.13,635.75 5535.92,640.59 5537.68,630.34 5530.24,623.08 5540.52,621.59 5545.13,612.26 
			5549.73,621.59 5560.02,623.08 5552.57,630.34 5554.33,640.59 		"/>
		<polygon class="st4" points="5544.85,773.18 5535.64,778.02 5537.4,767.77 5529.96,760.51 5540.25,759.02 5544.85,749.69 
			5549.45,759.02 5559.74,760.51 5552.29,767.77 5554.05,778.02 		"/>
		<polygon class="st4" points="5290.34,636.39 5281.14,641.23 5282.9,630.99 5275.45,623.73 5285.74,622.23 5290.34,612.91 
			5294.94,622.23 5305.23,623.73 5297.79,630.99 5299.55,641.23 		"/>
		<path class="st5" d="M5524.45,812.55l-143.52-205c-5.41-7.74-11.93-12.53-14.54-10.7c-2.61,1.83-0.34,9.58,5.08,17.32l143.52,205
			L5524.45,812.55z"/>
		<path class="st5" d="M5505.52,825.83l-143.51-205c-5.42-7.74-7.7-15.5-5.08-17.33c2.62-1.83,9.12,3,14.54,10.7l143.52,205
			L5505.52,825.83z"/>
		<path class="st5" d="M5505.52,825.83l-143.51-205c-5.42-7.74-11.93-12.53-14.55-10.7c-2.62,1.83-0.33,9.59,5.08,17.32l143.52,205
			L5505.52,825.83z"/>
		
			<rect x="5495.15" y="821.58" transform="matrix(0.8192 -0.5736 0.5736 0.8192 522.8409 3311.7776)" class="st5" width="36.16" height="10.38"/>
		<path class="st5" d="M5506.92,847.97c1.5,2.13,4.74,2.43,7.25,0.68l19.3-13.52c2.51-1.75,3.34-4.91,1.84-7l-4.91-7l-28.39,19.88
			L5506.92,847.97z"/>
		<polyline class="st5" points="5329.3,573.4 5338.05,567.27 5374.74,599.54 5315.31,544.11 5347.08,618.91 		"/>
		<path class="st5" d="M5477.52,583.78c7.68-11,28.84-32.93,51-39.26c-12,12.95-11.06,37.05-25.26,57.32
			c-7.68,11-19.68,15.82-26.8,10.83C5469.34,607.68,5469.84,594.75,5477.52,583.78z"/>
		<path class="st5" d="M5484.68,614.55c-0.59,16.84-6.82,31.46-56.49,96.7s-112.19,145.16-119,140.39
			c-6.81-4.77,46.91-90.85,91.22-159.84s55.95-79.85,71.55-86.17"/>
		<line class="st5" x1="5464.55" y1="661.27" x2="5434.94" y2="640.53"/>
		<path class="st6" d="M5502.3,655.35h-7.62v-6.65l0,0c0-1.28-0.69-2.46-1.81-3.07c-0.78-0.43-1.53-0.84-2.31-1.21
			c-0.22-0.13-0.44-0.22-0.62-0.32l-1.66-0.84c-0.28-0.12-0.59-0.28-0.87-0.41l-1.44-0.65c-0.33-0.16-0.66-0.29-1-0.41
			c-0.44-0.18-0.9-0.4-1.34-0.59s-0.66-0.28-1-0.41s-0.88-0.34-1.31-0.5l-1-0.37l-1.28-0.47c-0.35-0.12-0.72-0.25-1.07-0.34
			l-1.25-0.41c-0.34-0.12-0.71-0.22-1.06-0.31l-1.25-0.38l-1.09-0.28c-0.41-0.09-0.81-0.22-1.22-0.31l-1.09-0.25l-1.22-0.28
			c-0.38-0.06-0.72-0.16-1.09-0.22c-0.37-0.06-0.82-0.16-1.22-0.22l-1.1-0.19l-1.21-0.18c-0.38-0.07-0.75-0.1-1.1-0.16
			s-0.81-0.09-1.21-0.16l-1.1-0.09l-1.22-0.09c-0.37,0-0.75-0.07-1.09-0.07l-1.22-0.06c-0.37,0-0.75,0-1.09,0c-0.34,0-0.81,0-1.22,0
			h-1.09c-0.41,0-0.81,0-1.22,0s-0.75,0-1.09,0c-0.34,0-0.82,0-1.22,0.06l-1.09,0.1l-1.22,0.09c-0.37,0.02-0.74,0.07-1.1,0.13
			c-0.4,0-0.81,0.09-1.21,0.15c-0.4,0.06-0.75,0.1-1.1,0.16l-1.22,0.19l-1.09,0.18c-0.4,0.07-0.81,0.16-1.22,0.22
			s-0.72,0.16-1.09,0.22l-1.22,0.28c-0.37,0.1-0.72,0.16-1.09,0.25c-0.37,0.09-0.81,0.22-1.22,0.31c-0.41,0.09-0.72,0.19-1.09,0.32
			s-0.82,0.25-1.22,0.34c-0.4,0.09-0.72,0.22-1.09,0.34s-0.82,0.25-1.22,0.41l-1.1,0.38l-1.21,0.43c-0.38,0.13-0.72,0.28-1.1,0.41
			s-0.81,0.31-1.22,0.5l-1.09,0.44c-0.4,0.18-0.81,0.34-1.22,0.53l-1.06,0.47l-1.22,0.56c-0.34,0.15-0.72,0.34-1.06,0.5
			c-0.34,0.16-0.81,0.4-1.22,0.62c-0.41,0.22-0.72,0.38-1.06,0.53c-0.09,0.07-0.22,0.1-0.31,0.16s-0.22-0.09-0.31-0.16
			c-0.38-0.18-0.72-0.37-1.1-0.56s-0.81-0.41-1.21-0.62l-1.1-0.54l-1.22-0.56c-0.37-0.14-0.74-0.31-1.09-0.5
			c-0.41-0.18-0.81-0.34-1.19-0.53l-1.12-0.47c-0.41-0.15-0.78-0.31-1.19-0.47c-0.41-0.16-0.75-0.28-1.12-0.4l-1.19-0.44l-1.12-0.37
			l-1.19-0.38l-1.13-0.34c-0.4-0.13-0.78-0.25-1.18-0.35c-0.4-0.1-0.75-0.21-1.13-0.31c-0.38-0.1-0.78-0.22-1.18-0.31l-1.13-0.28
			c-0.4-0.09-0.78-0.19-1.18-0.25s-0.75-0.16-1.13-0.22s-0.78-0.16-1.19-0.22l-1.12-0.19l-1.16-0.18c-0.37-0.07-0.75-0.1-1.15-0.16
			s-0.78-0.09-1.16-0.12c-0.38-0.03-0.75-0.1-1.15-0.13l-1.16-0.09l-1.15-0.1c-0.38,0-0.79,0-1.16-0.06c-0.37-0.06-0.75,0-1.16,0
			h-1.15h-1.16c-0.4,0-0.78,0-1.18,0s-0.75,0-1.16,0l-1.19,0.06c-0.37,0-0.75,0-1.12,0.07l-1.19,0.09c-0.37,0-0.75,0.06-1.12,0.12
			s-0.78,0.1-1.19,0.16c-0.41,0.06-0.75,0.09-1.12,0.16l-1.19,0.18l-1.13,0.19c-0.4,0.06-0.78,0.16-1.18,0.22s-0.75,0.16-1.13,0.22
			l-1.18,0.28l-1.13,0.25c-0.4,0.09-0.81,0.22-1.22,0.31l-1.09,0.28c-0.41,0.13-0.81,0.25-1.22,0.35c-0.41,0.1-0.72,0.22-1.09,0.31
			c-0.37,0.09-0.81,0.28-1.22,0.41c-0.41,0.13-0.72,0.21-1.06,0.34c-0.34,0.13-0.84,0.31-1.25,0.44l-1.06,0.37
			c-0.44,0.16-0.85,0.34-1.28,0.5l-1,0.41l-1.35,0.56c-0.31,0.16-0.65,0.28-1,0.41l-1.43,0.65l-0.88,0.41
			c-0.56,0.28-1.09,0.56-1.65,0.81c-0.21,0.12-0.43,0.22-0.66,0.31l-2.31,1.26c-1.12,0.61-1.81,1.79-1.81,3.06l0,0v6.65h-7.56
			c-1.93,0-3.5,1.57-3.5,3.5v101.47c-0.01,1.93,1.55,3.5,3.48,3.5c0.42,0,0.85-0.07,1.24-0.22l15-5.49c19.7-7.55,41.49-7.55,61.19,0
			l3.84,1.4c0,0,0.06,0,0.13,0c0.07,0,0.06,0,0.09,0h0.09c0.1,0,0.19,0,0.28,0.06h0.16c0.06,0,0.09,0,0.16,0h1h0.18
			c0.04,0.01,0.09,0.01,0.13,0h0.09h0.09c0,0,0.1,0,0.13,0l3.84-1.4c19.71-7.55,41.51-7.55,61.22,0l15,5.5
			c0.39,0.14,0.8,0.21,1.22,0.21c1.92,0.01,3.49-1.54,3.5-3.46c0-0.01,0-0.02,0-0.03V658.75
			C5505.89,656.81,5504.25,655.33,5502.3,655.35z"/>
		<path class="st7" d="M5437.21,745.99c-3.06,1.13-6.09,2.28-9.12,3.47c-0.44,0.15-0.9,0.34-1.34,0.5l-0.72,0.28l-1,0.37
			c-0.44,0.16-0.84,0.32-1.28,0.5c-0.12,0.07-0.25,0.1-0.37,0.16V650.85c0.03-0.03,0.07-0.05,0.12-0.06l1-0.5
			c0.34-0.19,0.72-0.38,1.06-0.53l1-0.47l1-0.5c0.35-0.16,0.69-0.31,1-0.44c0.31-0.13,0.69-0.31,1-0.44l1-0.43
			c0.35-0.13,0.69-0.28,1-0.41c0.31-0.13,0.69-0.25,1-0.4l1-0.38l1-0.37c0.35-0.13,0.66-0.22,1-0.35l1.07-0.34
			c0.34-0.1,0.65-0.22,1-0.31c0.35-0.09,0.68-0.19,1.06-0.28l1-0.29c0.34-0.09,0.68-0.18,1.06-0.25c0.38-0.07,0.65-0.15,1-0.21
			c0.35-0.1,0.7-0.17,1.06-0.22l1-0.19l1.06-0.19c0.31-0.06,0.66-0.12,1-0.15c0.34-0.03,0.68-0.1,1.06-0.16
			c0.38-0.06,0.66-0.09,1-0.13c0.34-0.04,0.68-0.09,1.06-0.12l1-0.09l1.06-0.1c0.31,0,0.66,0,1-0.06s0.69,0,1-0.06h1
			c0.34,0,0.68,0,1,0h1c0.34,0,0.68,0,1,0s0.65,0,1,0s0.69,0,1,0.06l1,0.06l1,0.1l1,0.09c0.34,0,0.69,0.06,1,0.12s0.66,0.1,1,0.13
			c0.34,0.03,0.69,0.09,1,0.16l1,0.18l1,0.19c0.34,0.06,0.69,0.13,1,0.22c0.34,0.05,0.67,0.13,1,0.22c0.34,0.09,0.69,0.15,1,0.25
			c0.31,0.1,0.66,0.15,1,0.25l1.06,0.28l1,0.28c0.34,0.09,0.72,0.22,1.06,0.34c0.34,0.12,0.66,0.19,1,0.32l1.09,0.37
			c0.32,0.09,0.63,0.22,0.94,0.34s0.75,0.29,1.13,0.41c0.38,0.12,0.62,0.22,0.9,0.34l1.16,0.47l0.87,0.38
			c0.41,0.18,0.81,0.37,1.22,0.53l0.81,0.37l1.38,0.66c0.21,0.09,0.43,0.22,0.68,0.31l2.06,1v88.86
			C5470.6,735.15,5453.7,739.93,5437.21,745.99z"/>
		<path class="st7" d="M5370.56,738.03c-1.44-0.1-2.88-0.16-4.34-0.16c-4.75-0.02-9.49,0.58-14.09,1.78v-88.86
			c0.12-0.06,0.25-0.13,0.4-0.19l1.66-0.84l0.78-0.38l1.28-0.62l0.84-0.38c0.41-0.18,0.82-0.34,1.19-0.53l0.91-0.37l1.15-0.47
			c0.32-0.13,0.6-0.22,0.91-0.34c0.31-0.12,0.75-0.29,1.12-0.44c0.31-0.12,0.62-0.22,0.94-0.31l1.13-0.38l0.93-0.28
			c0.38-0.13,0.72-0.22,1.1-0.34l0.93-0.28c0.38-0.1,0.72-0.22,1.1-0.32c0.38-0.1,0.65-0.15,1-0.25c0.35-0.1,0.72-0.18,1.07-0.25
			c0.34-0.05,0.67-0.13,1-0.22l1.07-0.21l1-0.19l1.07-0.19c0.31-0.06,0.65-0.09,1-0.16s0.69-0.09,1.07-0.15s0.65-0.1,1-0.13l1-0.09
			l1-0.09c0.34,0,0.68-0.07,1-0.07l1-0.06c0.34,0,0.68,0,1,0s0.65,0,1,0h1c0.34,0,0.65,0,1,0s0.68,0,1,0s0.65,0,1,0.06
			s0.68,0,1,0.07l1,0.09l1,0.09c0.34,0,0.69,0.07,1,0.13l1,0.12c0.34,0.07,0.69,0.1,1,0.16l1,0.16l1,0.18
			c0.34,0.07,0.69,0.13,1,0.22c0.31,0.09,0.69,0.16,1,0.22c0.34,0.07,0.67,0.15,1,0.25l1,0.25l1,0.28l1,0.28
			c0.35,0.1,0.69,0.22,1,0.31c0.31,0.09,0.69,0.22,1,0.32l1,0.34c0.35,0.13,0.69,0.22,1,0.34l1,0.38l1,0.37
			c0.35,0.13,0.69,0.29,1,0.41s0.66,0.28,1,0.41l1,0.46l1,0.44c0.35,0.16,0.72,0.35,1.07,0.5l1,0.47c0.34,0.19,0.7,0.37,1.06,0.53
			c0.31,0.16,0.65,0.31,1,0.5c0.03,0.03,0.08,0.05,0.12,0.06v100.42c-0.12,0-0.22-0.09-0.34-0.12l-1.5-0.56l-0.69-0.29l-2.12-0.81
			C5398.26,744.27,5384.49,738.96,5370.56,738.03z"/>
		<path class="st7" d="M5351.25,751.55l-10.24,3.75v-93h4.12v82.05c-0.01,0.15-0.01,0.29,0,0.44c0.1,0.69,0.39,1.34,0.85,1.87
			c0.18,0.21,0.39,0.4,0.62,0.56c0.94,0.66,2.15,0.81,3.22,0.41c9-3.31,18-3.47,27.11-1.88
			C5368.15,746.55,5359.52,748.5,5351.25,751.55z"/>
		<path class="st7" d="M5498.81,755.36l-10.25-3.75c-8.26-3.07-16.89-5-25.67-5.74c9.12-1.56,18.11-1.41,27.11,1.87
			c1.81,0.67,3.82-0.24,4.49-2.05c0.15-0.39,0.22-0.81,0.22-1.23v-82.05h4.13v92.95H5498.81z"/>
	</g>
	<g id="Ring_1_">
		<rect x="5219.58" y="672.8" class="st2" width="395.54" height="42.38"/>
		<circle class="st4" cx="5417.18" cy="696.51" r="258.4"/>
		<circle class="st4" cx="5417.18" cy="696.51" r="205.4"/>
		<path class="st8" d="M5213.08,672.79h409.22 M5622.3,716.54h-408.57"/>
	</g>
	<g id="Text_1_">
		<path class="st3" d="M5186.74,684.1c8.37-0.1,15.43,4.87,15.54,15c0.11,10-6.8,14.85-15.18,14.94
			c-8.38,0.09-15.42-5.11-15.53-15.05C5171.46,689.67,5177.88,684.19,5186.74,684.1z M5186.88,705.1c5.43-0.06,9.2-1.91,9.15-6.2
			c-0.05-4.51-4.08-5.95-9.13-5.9c-5.4,0.06-9.13,1.68-9.08,6.21c0.05,4.23,3.54,5.96,9.06,5.9V705.1z"/>
		<path class="st3" d="M5201.91,680.33l-29.34-4.09l1.44-10.28c7-2.17,16.58-5.39,20.37-6.12v-0.15c-3.09-0.1-8.28-0.74-13-1.4
			l-6.24-0.87l1.15-7.87l29.34,4.09l-1.37,9.8c-5.66,1.75-17.41,5.52-21.47,6.36v0.11c2.8,0.12,8.48,0.88,13.65,1.6l6.58,0.92
			L5201.91,680.33z"/>
		<path class="st3" d="M5186.19,636.62l-2.28,8.15l-6.19-1.74l6.88-24.59l6.19,1.73l-2.26,8.08l22.33,6.3l-2.34,8.37L5186.19,636.62
			z"/>
		<path class="st3" d="M5210.44,617.87l4.69,3.76l-3.19,7.83l-23.89-19.84l4.24-10.41l31.07,2.17l-3.42,8.39l-6-0.51L5210.44,617.87
			z M5207.44,608.25c-4.83-0.47-9.09-1-12-1.45v0.11c2.7,1.84,6.19,4.49,9.68,7.21L5207.44,608.25z"/>
		<path class="st3" d="M5218.97,586.77l9.7,5.56l-4.18,7.31l-25.7-14.73l7.3-12.73c3.47-6,8.39-7.12,12.26-4.9
			c2.73,1.37,4.29,4.32,3.89,7.35c1.49-1.29,4.19-2,8.55,0.45l1.07,0.62c1.58,0.97,3.26,1.77,5,2.4l-4.11,7.18
			c-1.36-0.2-3.29-1.16-5.93-2.67l-0.66-0.38c-2.22-1.27-3.74-1.44-5.64,1.88L5218.97,586.77z M5213.72,583.77l2-3.48
			c1.43-2.51,0.92-4-0.81-5s-3.34-0.48-4.66,1.82l-2,3.52L5213.72,583.77z"/>
		<path class="st3" d="M5220.36,550.55l24.11,17.2l-5,7.08l-24.11-17.21L5220.36,550.55z"/>
		<path class="st3" d="M5255.36,532.05c6.26,5.57,8.14,14,1.4,21.57c-6.74,7.57-15,6.41-21.29,0.84s-8-14.16-1.37-21.59
			C5240.29,525.9,5248.72,526.16,5255.36,532.05z M5241.36,547.69c4.07,3.62,8.09,4.78,11,1.57c3-3.37,1-7.15-2.79-10.5
			c-4-3.59-7.88-4.9-10.9-1.52c-2.91,3.15-1.48,6.79,2.63,10.45H5241.36z"/>
		<path class="st3" d="M5266.41,511.49l-6.66,5.24l-4-5.06l20.07-15.8l4,5.05l-6.6,5.2l14.34,18.21l-6.82,5.37L5266.41,511.49z"/>
		<path class="st3" d="M5308.86,496.18l-11.53,7l2.88,4.75l12.87-7.8l2.51,6l-19.23,11.62l-15.31-25.32l19.16-11.62l3.33,5.5
			l-12,7.29l2.47,4.08l11.54-7L5308.86,496.18z"/>
		<path class="st3" d="M5324.36,495.62l0.72,6l-7.72,3.33l-3.2-30.89l10.29-4.51l20.71,23.33l-8.32,3.61l-3.94-4.57L5324.36,495.62z
			 M5328.93,486.62c-3.13-3.71-5.82-7.06-7.59-9.44h-0.11c0.64,3.2,1.29,7.53,1.88,11.91L5328.93,486.62z"/>
		<path class="st3" d="M5369.98,476.06c0.55,6.27-2.79,11.4-10.64,13.49c-9.37,2.5-15.59-2.62-17.8-10.93
			c-2.16-8.1,0.47-16.24,10.3-18.86c8.41-2.21,13.52,1.63,15.42,6.43l-8.32,2.22c-0.85-2.32-3.4-3.53-5.73-2.71
			c-4.07,1.09-4.43,5.33-3.1,10.33c1.21,4.53,3.56,8.7,8,7.53c3.34-0.89,3.62-3.56,3.55-5.27L5369.98,476.06z"/>
		<path class="st3" d="M5371.61,455.35l8.62-1.15l1.47,11l9-1.2l-1.47-11l8.64-1.16l3.93,29.35l-8.64,1.16l-1.6-12l-9,1.2l1.6,12
			l-8.62,1.15L5371.61,455.35z"/>
		<path class="st3" d="M5428.66,469.09h-13.49v5.55h15.06l-1,6.43h-22.43l0.06-29.61h22.41v6.43h-14.06v4.76h13.48L5428.66,469.09z"
			/>
		<path class="st3" d="M5442.93,471.33l-1.45,11.09l-8.36-1.09l3.84-29.37l14.55,1.91c6.92,0.9,9.78,5,9.2,9.47
			c-0.23,3.06-2.38,5.62-5.35,6.39c1.77,0.89,3.49,3.1,2.84,8.08l-0.16,1.22c-0.29,1.82-0.41,3.67-0.34,5.52l-8.2-1.08
			c-0.33-1.33-0.18-3.47,0.22-6.49l0.1-0.76c0.33-2.53-0.09-4-3.89-4.5L5442.93,471.33z M5443.71,465.33l4,0.52
			c2.87,0.37,4.07-0.68,4.33-2.66c0.26-1.98-0.84-3.27-3.47-3.61l-4-0.53L5443.71,465.33z"/>
		<path class="st3" d="M5470.51,478.55c-0.2,2.62,1.27,4.14,4,4.87c2.54,0.68,3.94,0.11,4.39-1.55c0.51-1.88-0.57-2.93-4.79-5.23
			c-7.89-4.31-8.74-7.85-7.7-11.69c1.29-4.8,5.9-7.87,13.85-5.73c8.28,2.23,10.53,7.34,9.71,12l-8.09-2.19
			c0.19-1.59-0.18-3.36-3.15-4.16c-1.92-0.52-3.29-0.11-3.71,1.43c-0.42,1.54,0.47,2.44,4.59,4.71c8.22,4.57,9.11,8.21,8,12.28
			c-1.45,5.37-6.6,8-15,5.72c-7.91-2.12-11.1-6.94-10.25-12.61L5470.51,478.55z"/>
		<path class="st3" d="M5493.43,475.98c2.55-3.66,4.66-7.61,6.3-11.76l7.25,2.69c-1.9,4.2-4.62,7.98-8,11.11L5493.43,475.98z"/>
		<path class="st3" d="M5522.14,474.98l19.61,10.29l-3,5.7l-12.07-6.35l-2.68,5.1l11.3,5.94l-3,5.72l-11.31-5.94l-5.09,9.71l-7.53-4
			L5522.14,474.98z"/>
		<path class="st3" d="M5555.6,515.86l-11.1-7.66l-3.14,4.57l12.39,8.55l-4.45,4.74l-18.48-12.74l16.82-24.37l18.44,12.72l-3.65,5.3
			l-11.57-8l-2.71,3.93l11.1,7.65L5555.6,515.86z"/>
		<path class="st3" d="M5572.27,506.46l9.42,8.55c7,6.34,7,14.43,1.3,20.73c-5.7,6.3-14.12,7.63-21.3,1.11l-9.33-8.46
			L5572.27,506.46z M5563.02,529.55l2.46,2.23c3.49,3.17,7.14,2,10.87-2.09c3.29-3.63,4.17-7.28,0.67-10.46l-2.54-2.31
			L5563.02,529.55z"/>
		<path class="st3" d="M5598.47,558.79l-8.7-10.31l-4.24,3.57l9.7,11.52l-5.54,3.4l-14.46-17.16l22.65-19.08l14.48,17.14l-5,4.14
			l-9-10.75l-3.65,3.07l8.65,10.32L5598.47,558.79z"/>
		<path class="st3" d="M5605.96,571.14l-9.41,6l-4.55-7.09l24.9-16l7.94,12.34c3.77,5.87,2.45,10.73-1.3,13.14
			c-2.48,1.79-5.81,1.81-8.31,0.06c0.46,1.93-0.13,4.67-4.34,7.38l-1,0.67c-1.58,0.96-3.06,2.06-4.43,3.31l-4.47-7
			c0.8-1.11,2.54-2.38,5.1-4l0.64-0.41c2.15-1.38,3-2.65,0.93-5.87L5605.96,571.14z M5611.05,567.86l2.17,3.38
			c1.56,2.43,3.14,2.67,4.82,1.59c1.68-1.08,2-2.75,0.52-5l-2.2-3.39L5611.05,567.86z"/>
		<path class="st3" d="M5615.87,599.24l-5.95,0.85l-3.56-7.68l30.81-3.9l4.71,10.21l-22.8,21.23l-3.8-8.23l4.48-4L5615.87,599.24z
			 M5624.96,603.6c3.64-3.21,6.93-6,9.27-7.8l-0.05-0.1c-3.19,0.71-7.5,1.45-11.87,2.15L5624.96,603.6z"/>
		<path class="st3" d="M5642.42,617.79l-2.64-8l6.11-2l8,24.27l-6.11,2l-2.62-8l-22,7.23l-2.8-8.26L5642.42,617.79z"/>
		<path class="st3" d="M5656.92,645.92l-28.85,6.63l-1.95-8.49l28.86-6.63L5656.92,645.92z"/>
		<path class="st3" d="M5647.57,684.36c-8.32,1-15.87-3.2-17.06-13.28c-1.18-9.89,5.17-15.49,13.49-16.48
			c8.47-1,15.89,3.43,17.06,13.31C5662.16,677.17,5656.36,683.31,5647.57,684.36z M5645.19,663.47c-5.41,0.64-8.95,2.88-8.44,7.15
			c0.53,4.48,4.69,5.48,9.7,4.89c5.37-0.64,8.9-2.65,8.37-7.15C5654.36,664.17,5650.66,662.82,5645.19,663.47z"/>
		<path class="st3" d="M5632.89,689.72l29.59,0.94l-0.33,10.37c-6.76,2.91-15.91,7.13-19.59,8.26v0.15c3.08-0.24,8.31-0.15,13,0
			l6.29,0.2l-0.25,7.91l-29.6-0.94l0.32-9.89c5.43-2.34,16.71-7.34,20.66-8.61v-0.12c-2.79,0.19-8.52,0-13.73-0.13l-6.65-0.21
			L5632.89,689.72z"/>
		<path class="st3" d="M5187.64,735.23l-6.48,0.92l-1.8-12.53l6.48-0.92L5187.64,735.23z"/>
		<path class="st3" d="M5183.97,758.84h-6l-2.36-8.11l31.05,0.7l3.14,10.78l-25.72,17.59l-2.54-8.7l5-3.34L5183.97,758.84z
			 M5192.36,764.55c4.08-2.64,7.73-4.89,10.32-6.34v-0.12c-3.25,0.24-7.63,0.33-12.05,0.37L5192.36,764.55z"/>
		<path class="st3" d="M5205.59,799.48l-5.33-12.39l-5.11,2.2l6,13.83l-6.29,1.65l-8.88-20.61l27.17-11.71l8.86,20.59l-5.91,2.51
			l-5.56-12.92l-4.38,1.92l5.34,12.39L5205.59,799.48z"/>
		<path class="st3" d="M5223.49,795.77l11,19.23l-5.58,3.19l-6.79-11.84l-5,2.86l6.34,11.08l-5.6,3.26l-6.34-11.08l-9.52,5.44
			l-4.23-7.38L5223.49,795.77z"/>
		<path class="st3" d="M5241.21,848.83c-6.67,5.05-15.3,5.25-21.42-2.83c-6.12-8.08-3.37-16,3.32-21s15.44-5.06,21.43,2.86
			C5250.17,835.26,5248.28,843.48,5241.21,848.83z M5228.61,832.02c-4.34,3.28-6.26,7-3.67,10.42c2.72,3.6,6.82,2.36,10.84-0.68
			c4.31-3.26,6.34-6.78,3.61-10.39C5236.84,828.01,5233,828.69,5228.61,832.02z"/>
		<path class="st3" d="M5259.04,867.32l-4.58,4.67l-9-8.87l4.59-4.67L5259.04,867.32z"/>
		<path class="st3" d="M5285.84,891.94l-10.82-8.07l-3.32,4.46l12.07,9l-4.62,4.57l-18-13.41l17.7-23.75l18,13.4l-3.84,5.16
			l-11.28-8.41l-2.85,3.83l10.82,8.06L5285.84,891.94z"/>
		<path class="st3" d="M5302,888.68l-7.34-4.21l3.2-5.58l22.16,12.71l-3.2,5.58l-7.28-4.18L5298,913.11l-7.53-4.32L5302,888.68z"/>
		<path class="st3" d="M5321.66,892.25l20.33,8.77l-2.55,5.9l-12.53-5.37l-2.27,5.29l11.72,5.02l-2.56,5.94l-11.72-5.06l-4.35,10.06
			l-7.8-3.36L5321.66,892.25z"/>
		<path class="st3" d="M5368.36,924.37c-2.41,8-9.25,13.29-19,10.38c-9.54-2.86-12.16-10.91-9.75-18.94
			c2.41-8.03,9.47-13.21,19-10.36C5367.56,908.13,5370.88,915.89,5368.36,924.37z M5348.25,918.26c-1.56,5.2-0.92,9.35,3.2,10.58
			c4.32,1.29,6.89-2.12,8.34-7c1.56-5.18,1.12-9.22-3.22-10.52c-4.06-1.17-6.76,1.65-8.34,6.94H5348.25z"/>
		<path class="st3" d="M5392.96,928.07l-0.86,6.48l-12.55-1.66l0.86-6.49L5392.96,928.07z"/>
		<path class="st3" d="M5435.94,928.55c0.14,8.38-4.79,15.47-14.93,15.64c-10,0.16-14.89-6.72-15-15.1c-0.11-8.38,5-15.45,15-15.62
			C5430.27,913.33,5435.79,919.71,5435.94,928.55z M5414.94,928.82c0.09,5.43,2,9.18,6.25,9.11c4.51-0.07,5.93-4.11,5.84-9.16
			c-0.09-5.4-1.73-9.12-6.26-9c-4.23,0.05-5.94,3.55-5.84,9.07L5414.94,928.82z"/>
		<path class="st3" d="M5462.5,927.55l-13.34,2l0.82,5.5l14.89-2.22v6.5l-22.2,3.22l-4.37-29.29l22.17-3.3l0.95,6.36l-13.91,2.07
			l0.7,4.71l13.35-2L5462.5,927.55z"/>
		<path class="st3" d="M5494.95,921.17c0.64,6.25-2.62,11.43-10.44,13.64c-9.33,2.64-15.62-2.39-17.95-10.66
			c-2.28-8.07,0.22-16.24,10-19c8.38-2.36,13.56,1.43,15.52,6.2l-8.29,2.34c-0.88-2.3-3.45-3.47-5.76-2.62
			c-4.06,1.15-4.36,5.39-2.95,10.37c1.27,4.52,3.68,8.65,8.07,7.41c3.32-0.93,3.57-3.61,3.47-5.32L5494.95,921.17z"/>
		<path class="st3" d="M5500.03,904.55l-7.8,3.3l-2.5-5.93l23.53-9.94l2.5,5.93l-7.73,3.26l9,21.36l-8,3.38L5500.03,904.55z"/>
		<path class="st3" d="M5530.09,909.77l1.31,5.87l-7.39,4.11l-6.22-30.43l9.82-5.46l22.89,21.15l-7.91,4.4l-4.37-4.16
			L5530.09,909.77z M5533.76,900.37c-3.48-3.38-6.49-6.45-8.48-8.64l-0.1,0.06c0.95,3.12,2,7.36,3,11.67L5533.76,900.37z"/>
		<path class="st3" d="M5562.91,877.9l4,5.22l-10.09,7.65l-3.99-5.22L5562.91,877.9z"/>
		<path class="st3" d="M5593.85,848.07c6,5.87,7.45,14.37,0.35,21.62s-15.31,5.67-21.29-0.19c-5.98-5.86-7.28-14.53-0.33-21.63
			C5579.11,841.21,5587.52,841.87,5593.85,848.07z M5579.08,863.07c3.88,3.8,7.85,5.16,10.85,2.09c3.16-3.22,1.33-7.09-2.27-10.62
			c-3.86-3.78-7.64-5.28-10.81-2c-2.95,2.92-1.71,6.62,2.23,10.48V863.07z"/>
		<path class="st3" d="M5605.29,842.67c2.36,1.15,4.31,0.35,6-1.9c1.69-2.25,1.56-3.62,0.18-4.65c-1.56-1.17-2.94-0.55-6.63,2.53
			c-6.93,5.73-10.52,5.22-13.72,2.83c-4-3-5.13-8.39-0.2-15c5.13-6.87,10.71-7.07,14.7-4.61l-5,6.72c-1.41-0.77-3.19-1.09-5,1.38
			c-1.19,1.59-1.32,3,0,4c1.32,1,2.44,0.46,6.07-2.53c7.28-5.95,11-5.43,14.38-2.91c4.45,3.33,5,9.08-0.22,16
			c-4.9,6.57-10.56,7.76-15.52,4.87L5605.29,842.67z"/>
		<path class="st3" d="M5622.01,818.18c2.49,0.84,4.32-0.2,5.71-2.64c1.29-2.28,1.09-3.79-0.41-4.63c-1.69-1-3-0.19-6.26,3.33
			c-6.15,6.56-9.78,6.5-13.25,4.53c-4.33-2.45-6.15-7.68-2.08-14.85c4.23-7.46,9.74-8.36,14-6.41l-4.14,7.29
			c-1.49-0.58-3.3-0.67-4.82,2c-1,1.72-0.93,3.16,0.46,3.95c1.39,0.79,2.47,0.15,5.7-3.27c6.49-6.81,10.24-6.77,13.91-4.69
			c4.84,2.74,6.08,8.38,1.79,15.95c-4,7.12-9.51,9-14.79,6.77L5622.01,818.18z"/>
		<path class="st3" d="M5621.85,787.55l-3.28,7.8l-5.93-2.49l9.91-23.55l5.93,2.49l-3.26,7.75l21.37,9l-3.37,8L5621.85,787.55z"/>
		<path class="st3" d="M5622.96,767.55l6.4-21.24l6.16,1.85l-3.92,13.07l5.52,1.65l3.66-12.23l6.19,1.85l-3.66,12.24l10.5,3.14
			l-2.45,8.15L5622.96,767.55z"/>
		<path class="st3" d="M5648.09,726.02l6.46,1l-1.95,12.53l-6.47-1L5648.09,726.02z"/>
		<path class="st3" d="M5225.09,684.96h8c5.92,0,9.35,3.74,9.35,9.09c0,5.35-3.35,9.5-9.44,9.5h-7.9L5225.09,684.96z M5230.55,699.6
			h2.08c3,0,4.17-2.07,4.17-5.55c0-3.08-1.13-5.14-4.1-5.14h-2.15V699.6z"/>
		<path class="st3" d="M5259.16,696.03h-8.47v3.52h9.46l-0.61,4h-14.09v-18.59h14.07v4h-8.83v3h8.47V696.03z"/>
		<path class="st3" d="M5262.62,684.96h13.9v4h-8.56v3.61h8v4.06h-8v6.92h-5.34V684.96z"/>
		<path class="st3" d="M5292.96,696.03h-8.46v3.52h9.45l-0.61,4h-14.09v-18.59h14.11v4h-8.82v3h8.46L5292.96,696.03z"/>
		<path class="st3" d="M5296.43,703.55v-18.59h6.51c2,4.19,4.79,9.84,5.57,12.13h0.09c-0.2-1.93-0.25-5.21-0.25-8.18v-3.95h5v18.59
			h-6.22c-1.57-3.37-4.93-10.34-5.81-12.79h-0.07c0.17,1.74,0.19,5.34,0.19,8.61v4.18H5296.43z"/>
		<path class="st3" d="M5317.16,684.96h8c5.91,0,9.35,3.74,9.35,9.09c0,5.35-3.35,9.5-9.44,9.5h-7.9L5317.16,684.96z M5322.61,699.6
			h2.09c3,0,4.17-2.07,4.17-5.55c0-3.08-1.13-5.14-4.1-5.14h-2.16V699.6z"/>
		<path class="st3" d="M5343.51,684.96h8.62c4.19,0,7,2.33,7,6c0,4.18-3.2,6.1-7.14,6.1h-3.11v6.49h-5.38L5343.51,684.96z
			 M5348.89,693.19h2.22c1.54,0,2.64-0.64,2.64-2.2s-1.11-2.21-2.62-2.21h-2.24V693.19z"/>
		<path class="st3" d="M5367.22,684.96v11.43c0,2.66,1.31,3.57,3,3.57s2.83-1.09,2.83-3.57v-11.43h5.47v10.88
			c0,6.18-3.65,8.06-8.39,8.06c-4.91,0-8.32-2-8.32-8v-10.94H5367.22z"/>
		<path class="st3" d="M5382.15,684.96h9.21c4.48,0,6.46,2.22,6.46,4.83c0.08,1.73-0.93,3.33-2.53,4c1.81,0.6,3.02,2.3,3,4.2
			c0,3.05-2.27,5.54-6.91,5.54h-9.31L5382.15,684.96z M5390.48,692.13c1.5,0,2.1-0.77,2.1-1.78c0-1.16-0.83-1.72-2.14-1.72h-3v3.5
			H5390.48z M5387.48,699.89h2.78c1.79,0,2.55-0.78,2.55-2.11c0-1.17-0.72-2-2.45-2h-2.88V699.89z"/>
		<path class="st3" d="M5401.05,684.96h5.46v14.59h8.76l-0.59,4h-13.63V684.96z"/>
		<path class="st3" d="M5422.87,684.96v18.59h-5.46v-18.59H5422.87z"/>
		<path class="st3" d="M5443.56,697.43c-0.68,3.89-3.54,6.47-8.64,6.47c-6.09,0-9-4.11-9-9.51s2.91-9.78,9.3-9.78
			c5.46,0,7.95,3.18,8.31,6.4h-5.4c-0.14-1.53-1.47-2.67-3-2.57c-2.65,0-3.55,2.51-3.55,5.76c0,3,0.75,5.86,3.61,5.86
			c1.54,0.05,2.85-1.1,3-2.63H5443.56z"/>
		<path class="st3" d="M5466.06,696.03h-8.47v3.52h9.45l-0.6,4h-14.08v-18.59h14.07v4h-8.83v3h8.47L5466.06,696.03z"/>
		<path class="st3" d="M5469.52,684.96h8c5.91,0,9.34,3.74,9.34,9.09c0,5.35-3.34,9.5-9.43,9.5h-7.9L5469.52,684.96z M5474.97,699.6
			h2.09c3,0,4.17-2.07,4.17-5.55c0-3.08-1.13-5.14-4.11-5.14h-2.15V699.6z"/>
		<path class="st3" d="M5495.17,684.96v11.43c0,2.66,1.31,3.57,3,3.57s2.83-1.09,2.83-3.57v-11.43h5.47v10.88
			c0,6.18-3.65,8.06-8.39,8.06c-4.91,0-8.32-2-8.32-8v-10.94H5495.17z"/>
		<path class="st3" d="M5526.88,697.43c-0.68,3.89-3.54,6.47-8.64,6.47c-6.09,0-9-4.11-9-9.51s2.91-9.78,9.3-9.78
			c5.46,0,8,3.18,8.31,6.4h-5.4c-0.14-1.53-1.47-2.67-3-2.57c-2.65,0-3.55,2.51-3.55,5.76c0,3,0.75,5.86,3.61,5.86
			c1.54,0.05,2.85-1.1,3-2.63H5526.88z"/>
		<path class="st3" d="M5534.1,699.93l-1.07,3.62h-5.31l5.87-18.59h7.06l6.1,18.59h-5.69l-1.12-3.62H5534.1z M5538.98,695.93
			c-0.87-2.92-1.59-5.52-2-7.33h-0.07c-0.43,2-1.14,4.65-1.9,7.33H5538.98z"/>
		<path class="st3" d="M5550.61,689h-5.32v-4h16v4h-5.23v14.55h-5.45V689z"/>
		<path class="st3" d="M5569.05,684.96v18.59h-5.46v-18.59H5569.05z"/>
		<path class="st3" d="M5590.88,694.24c0,5.26-3.17,9.66-9.54,9.66s-9.27-4.37-9.27-9.64s3.31-9.65,9.55-9.65
			C5587.48,684.61,5590.88,688.68,5590.88,694.24z M5577.68,694.18c0,3.42,1.14,5.79,3.83,5.79c2.84,0,3.77-2.52,3.77-5.69
			c0-3.39-1-5.74-3.84-5.74C5578.79,688.55,5577.68,690.72,5577.68,694.18L5577.68,694.18z"/>
		<path class="st3" d="M5593.88,703.55v-18.59h6.48c1.95,4.19,4.79,9.84,5.57,12.13h0.09c-0.21-1.93-0.25-5.21-0.25-8.18v-3.95h5
			v18.59h-6.21c-1.58-3.37-4.94-10.34-5.81-12.79h-0.08c0.18,1.74,0.19,5.34,0.19,8.61v4.18H5593.88z"/>
		<path class="st3" d="M5402.29,539.42c0,9.35-5.63,17.18-17,17.18c-11.12,0-16.49-7.78-16.49-17.13c0-9.52,5.89-17.16,17-17.16
			C5396.25,522.31,5402.29,529.55,5402.29,539.42z M5378.83,539.32c0,6.07,2,10.3,6.81,10.3c5,0,6.69-4.49,6.69-10.12
			c0-6-1.76-10.21-6.82-10.21C5380.81,529.29,5378.83,533.17,5378.83,539.32z"/>
		<path class="st3" d="M5418.44,530.1h-9.45v-7.18h28.51v7.18h-9.36v25.88h-9.7V530.1z"/>
		<path class="st3" d="M5446.36,522.92h24.72v7.18h-15.28v6.45h14.25v7.21h-14.25V556h-9.44V522.92z"/>
	</g>
</g>
</svg>
